<?xml version="1.0" encoding="UTF-8" standalone="no"?>
<svg
   xmlns:dc="http://purl.org/dc/elements/1.1/"
   xmlns:cc="http://creativecommons.org/ns#"
   xmlns:rdf="http://www.w3.org/1999/02/22-rdf-syntax-ns#"
   xmlns:svg="http://www.w3.org/2000/svg"
   xmlns="http://www.w3.org/2000/svg"
   xmlns:sodipodi="http://sodipodi.sourceforge.net/DTD/sodipodi-0.dtd"
   xmlns:inkscape="http://www.inkscape.org/namespaces/inkscape"
   viewBox="0 0 500 500"
   version="1.1"
   id="svg_null"
   sodipodi:docname="logo.svg"
   inkscape:version="0.92.4 5da689c313, 2019-01-14">
  <metadata
     id="metadata3995">
    <rdf:RDF>
      <cc:Work
         rdf:about="">
        <dc:format>image/svg+xml</dc:format>
        <dc:type
           rdf:resource="http://purl.org/dc/dcmitype/StillImage" />
      </cc:Work>
    </rdf:RDF>
  </metadata>
  <defs
     id="defs3993" />
  <sodipodi:namedview
     pagecolor="#ffffff"
     bordercolor="#666666"
     borderopacity="1"
     objecttolerance="10"
     gridtolerance="10"
     guidetolerance="10"
     inkscape:pageopacity="0"
     inkscape:pageshadow="2"
     inkscape:window-width="3840"
     inkscape:window-height="2117"
     id="namedview3991"
     showgrid="false"
     inkscape:snap-page="false"
     inkscape:zoom="2.6502362"
     inkscape:cx="147.86052"
     inkscape:cy="287.35428"
     inkscape:window-x="0"
     inkscape:window-y="0"
     inkscape:window-maximized="0"
     inkscape:current-layer="Group" />
  <g
     id="root"
     stroke="none"
     stroke-width="1"
     fill="none"
     fill-rule="evenodd">
    <g
       id="shape.primary"
       transform="matrix(1.4336528,0,0,1.4336528,70.793397,19.997658)"
       style="fill:#f33535">
      <g
         id="g3963">
        <path
           d="M 16.397,233.62 0.877,249.138 V 0.862 L 31.91,218.105 Z M 233.607,16.377 249.123,0.862 V 249.138 L 218.094,31.892 233.608,16.377 Z"
           id="path3947"
           inkscape:connector-curvature="0"
           style="fill-opacity:0.6" />
        <path
           d="M 47.422,202.592 31.908,218.107 0.877,0.864 62.945,187.07 Z M 202.583,47.415 218.096,31.89 249.123,249.136 187.063,62.937 Z"
           id="path3949"
           inkscape:connector-curvature="0"
           style="fill-opacity:0.5" />
        <path
           d="M 78.456,171.554 62.942,187.072 0.877,0.863 93.972,156.039 Z M 171.549,78.45 187.065,62.935 249.123,249.136 156.036,93.968 Z"
           id="path3951"
           inkscape:connector-curvature="0"
           style="fill-opacity:0.4" />
        <path
           d="M 233.617,16.394 218.111,31.909 0.878,0.954 249.123,0.864 Z M 16.39,233.614 31.893,218.098 249.123,249.053 0.877,249.138 16.39,233.613 Z"
           id="path3953"
           inkscape:connector-curvature="0"
           style="fill-opacity:0.02999998" />
        <path
           d="M 202.592,47.431 187.086,62.954 0.878,0.954 218.113,31.907 202.593,47.431 Z M 47.407,202.576 62.921,187.046 249.121,249.053 31.891,218.1 Z"
           id="path3955"
           inkscape:connector-curvature="0"
           style="fill-opacity:0.05" />
        <path
           d="M 171.573,78.477 156.069,94.001 0.878,0.954 187.088,62.952 Z M 78.432,171.521 93.938,155.999 249.122,249.053 62.919,187.046 Z"
           id="path3957"
           inkscape:connector-curvature="0"
           style="fill-opacity:0.1" />
        <path
           d="M 140.557,109.521 125.003,125.003 0.877,0.952 156.071,93.999 Z M 109.45,140.486 124.995,125.002 249.123,249.055 93.936,156.001 Z"
           id="path3959"
           inkscape:connector-curvature="0"
           style="fill-opacity:0.2" />
        <path
           d="m 125,124.998 15.515,-15.517 15.52,-15.513 92.865,154.79 0.223,0.296 -0.124,-0.131 0.124,0.214 -0.296,-0.386 -123.83,-123.744 -15.508,15.51 L 93.971,156.039 1.105,1.247 0.877,0.953 1.007,1.084 0.877,0.864 1.18,1.257 Z"
           id="path3961"
           inkscape:connector-curvature="0"
           style="fill-opacity:0.3" />
      </g>
      <g
         id="g3981">
        <path
           d="M 16.39,125.002 H 0.877 l 124.126,-124.14 -93.1,124.14 z m 217.218,-0.007 15.515,0.008 -124.12,124.135 93.091,-124.143 z"
           id="path3965"
           inkscape:connector-curvature="0"
           style="fill-opacity:0.6" />
        <path
           d="M 47.422,125.002 H 31.901 L 125.003,0.862 62.945,125.002 Z m 155.161,0 15.513,-0.007 -93.094,124.143 62.06,-124.136 z"
           id="path3967"
           inkscape:connector-curvature="0"
           style="fill-opacity:0.5" />
        <path
           d="M 78.456,125.002 H 62.942 L 125.003,0.862 93.972,125.002 Z m 93.093,0 h 15.516 l -62.063,124.136 31.034,-124.143 z"
           id="path3969"
           inkscape:connector-curvature="0"
           style="fill-opacity:0.4" />
        <path
           d="M 233.608,125.012 H 218.094 L 124.961,0.91 249.123,125.002 Z M 16.39,124.995 h 15.513 l 93.14,124.1 L 0.877,125.003 Z"
           id="path3971"
           inkscape:connector-curvature="0"
           style="fill-opacity:0.02999998" />
        <path
           d="M 202.574,125.012 187.063,125.029 124.961,0.91 218.097,125.012 Z m -155.152,-0.026 15.523,-0.007 62.097,124.116 -93.141,-124.1 15.52,-0.01 z"
           id="path3973"
           inkscape:connector-curvature="0"
           style="fill-opacity:0.05" />
        <path
           d="M 171.549,125.029 156.036,125.036 124.963,0.91 187.065,125.029 Z m -93.093,-0.05 15.516,-0.017 31.07,124.133 -62.1,-124.116 z"
           id="path3975"
           inkscape:connector-curvature="0"
           style="fill-opacity:0.1" />
        <path
           d="M 140.515,125.036 125.001,125.002 124.963,0.91 156.038,125.036 Z m -31.032,-0.074 15.513,0.034 0.046,124.1 L 93.97,124.962 Z"
           id="path3977"
           inkscape:connector-curvature="0"
           style="fill-opacity:0.2" />
        <path
           d="m 125.002,124.996 h 15.512 15.523 l -30.961,123.845 -0.034,0.252 v -0.128 l -0.039,0.172 0.039,-0.347 -0.046,-123.786 H 109.483 93.97 L 124.929,1.166 124.963,0.912 v 0.12 l 0.039,-0.169 -0.04,0.345 z"
           id="path3979"
           inkscape:connector-curvature="0"
           style="fill-opacity:0.3" />
      </g>
    </g>
    <g
       id="Group"
       transform="matrix(1.4336528,0,0,1.4336528,-51.067088,412.8185)">
      <rect
         id="Rectangle-10"
         x="0"
         y="0"
         width="420"
         height="46" />
      <g
         aria-label="Soundsync"
         style="font-style:normal;font-variant:normal;font-weight:normal;font-stretch:normal;font-size:44px;font-family:'DejaVu Sans';-inkscape-font-specification:'DejaVu Sans, Normal';font-variant-ligatures:normal;font-variant-caps:normal;font-variant-numeric:normal;font-feature-settings:normal;text-align:start;letter-spacing:4.4000001;writing-mode:lr-tb;text-anchor:start;fill:#4a4a4a"
         id="headerText">
        <path
           d="m 96.064064,-4.9940891 v 4.23242185 Q 93.593361,-1.9433079 91.401955,-2.523386 q -2.191407,-0.5800781 -4.232422,-0.5800781 -3.544922,0 -5.478516,1.375 -1.912109,1.37499997 -1.912109,3.9101562 0,2.1269531 1.267578,3.2226563 1.289062,1.0742187 4.855469,1.7402343 l 2.621093,0.5371094 q 4.855469,0.9238281 7.154297,3.2656249 2.320313,2.320313 2.320313,6.230469 0,4.662109 -3.136719,7.068359 -3.115234,2.40625 -9.152344,2.40625 -2.277343,0 -4.855468,-0.515625 -2.556641,-0.515625 -5.306641,-1.52539 v -4.46875 q 2.642578,1.482421 5.177734,2.234375 2.535157,0.751953 4.984375,0.751953 3.716797,0 5.736328,-1.460938 2.019532,-1.460937 2.019532,-4.167969 0,-2.363281 -1.460938,-3.695312 -1.439453,-1.332031 -4.748047,-1.998047 l -2.642578,-0.515625 q -4.855469,-0.966797 -7.02539,-3.0292968 -2.169922,-2.0625 -2.169922,-5.7363281 0,-4.2539062 2.986328,-6.703125 3.007812,-2.4492187 8.271484,-2.4492187 2.25586,0 4.597656,0.4082031 2.341797,0.4082031 4.791016,1.2246094 z"
           style="font-style:normal;font-variant:normal;font-weight:normal;font-stretch:normal;font-size:44px;font-family:'DejaVu Sans';-inkscape-font-specification:'DejaVu Sans, Normal';font-variant-ligatures:normal;font-variant-caps:normal;font-variant-numeric:normal;font-feature-settings:normal;text-align:start;writing-mode:lr-tb;text-anchor:start"
           id="path3997" />
        <path
           d="m 118.31758,4.7383327 q -3.17969,0 -5.02734,2.4921875 -1.84766,2.4707032 -1.84766,6.7890628 0,4.318359 1.82617,6.810547 1.84766,2.470703 5.04883,2.470703 3.1582,0 5.00586,-2.492188 1.84766,-2.492187 1.84766,-6.789062 0,-4.2753909 -1.84766,-6.7675784 -1.84766,-2.5136719 -5.00586,-2.5136719 z m 0,-3.3515625 q 5.15625,0 8.09961,3.3515625 2.94336,3.3515625 2.94336,9.2812503 0,5.908203 -2.94336,9.28125 -2.94336,3.351562 -8.09961,3.351562 -5.17773,0 -8.12109,-3.351562 -2.92188,-3.373047 -2.92188,-9.28125 0,-5.9296878 2.92188,-9.2812503 2.94336,-3.3515625 8.12109,-3.3515625 z"
           style="font-style:normal;font-variant:normal;font-weight:normal;font-stretch:normal;font-size:44px;font-family:'DejaVu Sans';-inkscape-font-specification:'DejaVu Sans, Normal';font-variant-ligatures:normal;font-variant-caps:normal;font-variant-numeric:normal;font-feature-settings:normal;text-align:start;writing-mode:lr-tb;text-anchor:start"
           id="path3999" />
        <path
           d="M 139.90508,16.533255 V 1.9668484 h 3.95312 V 16.382864 q 0,3.416016 1.33204,5.134766 1.33203,1.697265 3.99609,1.697265 3.20117,0 5.04883,-2.041015 1.86914,-2.041016 1.86914,-5.564454 V 1.9668484 h 3.95312 V 26.029348 h -3.95312 v -3.695312 q -1.43946,2.191406 -3.35156,3.265625 -1.89063,1.052734 -4.4043,1.052734 -4.14649,0 -6.29492,-2.578125 -2.14844,-2.578125 -2.14844,-7.541015 z m 9.94726,-15.1464848 z"
           style="font-style:normal;font-variant:normal;font-weight:normal;font-stretch:normal;font-size:44px;font-family:'DejaVu Sans';-inkscape-font-specification:'DejaVu Sans, Normal';font-variant-ligatures:normal;font-variant-caps:normal;font-variant-numeric:normal;font-feature-settings:normal;text-align:start;writing-mode:lr-tb;text-anchor:start"
           id="path4001" />
        <path
           d="m 192.60195,11.505911 v 14.523437 h -3.95312 V 11.634817 q 0,-3.4160155 -1.33203,-5.1132811 -1.33204,-1.6972657 -3.9961,-1.6972657 -3.20117,0 -5.04883,2.0410157 -1.84765,2.0410156 -1.84765,5.5644531 v 13.599609 h -3.97461 V 1.9668484 h 3.97461 v 3.7382812 q 1.41797,-2.1699219 3.33008,-3.2441406 1.93359,-1.0742188 4.44726,-1.0742188 4.14649,0 6.27344,2.578125 2.12695,2.5566407 2.12695,7.5410158 z"
           style="font-style:normal;font-variant:normal;font-weight:normal;font-stretch:normal;font-size:44px;font-family:'DejaVu Sans';-inkscape-font-specification:'DejaVu Sans, Normal';font-variant-ligatures:normal;font-variant-caps:normal;font-variant-numeric:normal;font-feature-settings:normal;text-align:start;writing-mode:lr-tb;text-anchor:start"
           id="path4003" />
        <path
           d="M 220.72071,5.6191921 V -7.4003391 h 3.95313 V 26.029348 h -3.95313 v -3.609375 q -1.24609,2.148438 -3.1582,3.201172 -1.89063,1.03125 -4.55469,1.03125 -4.36133,0 -7.11133,-3.480469 -2.72851,-3.480468 -2.72851,-9.152343 0,-5.6718753 2.72851,-9.152344 2.75,-3.4804688 7.11133,-3.4804688 2.66406,0 4.55469,1.0527344 1.91211,1.03125 3.1582,3.1796875 z m -13.4707,8.4003909 q 0,4.361328 1.7832,6.853515 1.80469,2.470703 4.94141,2.470703 3.13672,0 4.9414,-2.470703 1.80469,-2.492187 1.80469,-6.853515 0,-4.3613284 -1.80469,-6.8320315 -1.80468,-2.4921875 -4.9414,-2.4921875 -3.13672,0 -4.94141,2.4921875 -1.7832,2.4707031 -1.7832,6.8320315 z"
           style="font-style:normal;font-variant:normal;font-weight:normal;font-stretch:normal;font-size:44px;font-family:'DejaVu Sans';-inkscape-font-specification:'DejaVu Sans, Normal';font-variant-ligatures:normal;font-variant-caps:normal;font-variant-numeric:normal;font-feature-settings:normal;text-align:start;writing-mode:lr-tb;text-anchor:start"
           id="path4005" />
        <path
           d="M 252.55625,2.6758327 V 6.414114 Q 250.88047,5.554739 249.07578,5.1250515 247.2711,4.695364 245.3375,4.695364 q -2.94336,0 -4.42578,0.9023437 -1.46094,0.9023438 -1.46094,2.7070313 0,1.375 1.05274,2.169922 1.05273,0.773437 4.23242,1.482422 l 1.35351,0.300781 q 4.21094,0.902344 5.97266,2.556641 1.7832,1.632812 1.7832,4.576171 0,3.351563 -2.66406,5.306641 -2.64258,1.955078 -7.2832,1.955078 -1.9336,0 -4.03906,-0.386719 -2.08399,-0.365234 -4.4043,-1.117187 v -4.082031 q 2.19141,1.138672 4.31836,1.71875 2.12695,0.558593 4.21094,0.558593 2.79296,0 4.29687,-0.945312 1.50391,-0.966797 1.50391,-2.707031 0,-1.611328 -1.09571,-2.470703 -1.07421,-0.859375 -4.74804,-1.654297 l -1.375,-0.322266 q -3.67383,-0.773437 -5.30664,-2.363281 -1.63282,-1.611328 -1.63282,-4.404297 0,-3.3945313 2.40625,-5.2421875 2.40625,-1.8476563 6.83204,-1.8476563 2.1914,0 4.125,0.3222657 1.93359,0.3222656 3.5664,0.9667968 z"
           style="font-style:normal;font-variant:normal;font-weight:normal;font-stretch:normal;font-size:44px;font-family:'DejaVu Sans';-inkscape-font-specification:'DejaVu Sans, Normal';font-variant-ligatures:normal;font-variant-caps:normal;font-variant-numeric:normal;font-feature-settings:normal;text-align:start;writing-mode:lr-tb;text-anchor:start"
           id="path4007" />
        <path
           d="m 274.55195,28.263723 q -1.67578,4.296875 -3.26563,5.607422 -1.58984,1.310547 -4.2539,1.310547 h -3.15821 v -3.308594 h 2.32032 q 1.63281,0 2.53515,-0.773437 0.90235,-0.773438 1.99805,-3.652344 l 0.70898,-1.804687 -9.73242,-23.6757816 h 4.18946 l 7.51953,18.8203126 7.51953,-18.8203126 h 4.18945 z"
           style="font-style:normal;font-variant:normal;font-weight:normal;font-stretch:normal;font-size:44px;font-family:'DejaVu Sans';-inkscape-font-specification:'DejaVu Sans, Normal';font-variant-ligatures:normal;font-variant-caps:normal;font-variant-numeric:normal;font-feature-settings:normal;text-align:start;writing-mode:lr-tb;text-anchor:start"
           id="path4009" />
        <path
           d="m 314.98125,11.505911 v 14.523437 h -3.95312 V 11.634817 q 0,-3.4160155 -1.33203,-5.1132811 -1.33203,-1.6972657 -3.9961,-1.6972657 -3.20117,0 -5.04882,2.0410157 -1.84766,2.0410156 -1.84766,5.5644531 v 13.599609 h -3.97461 V 1.9668484 h 3.97461 v 3.7382812 q 1.41797,-2.1699219 3.33008,-3.2441406 1.93359,-1.0742188 4.44726,-1.0742188 4.14649,0 6.27344,2.578125 2.12695,2.5566407 2.12695,7.5410158 z"
           style="font-style:normal;font-variant:normal;font-weight:normal;font-stretch:normal;font-size:44px;font-family:'DejaVu Sans';-inkscape-font-specification:'DejaVu Sans, Normal';font-variant-ligatures:normal;font-variant-caps:normal;font-variant-numeric:normal;font-feature-settings:normal;text-align:start;writing-mode:lr-tb;text-anchor:start"
           id="path4011" />
        <path
           d="M 344.58242,2.8906765 V 6.585989 q -1.67578,-0.9238281 -3.37305,-1.375 -1.67578,-0.4726563 -3.39453,-0.4726563 -3.8457,0 -5.97265,2.4492188 -2.12696,2.4277344 -2.12696,6.8320315 0,4.404297 2.12696,6.853515 2.12695,2.427735 5.97265,2.427735 1.71875,0 3.39453,-0.451172 1.69727,-0.472656 3.37305,-1.396485 v 3.652344 q -1.6543,0.773438 -3.4375,1.160156 -1.76172,0.386719 -3.75977,0.386719 -5.43554,0 -8.63671,-3.416015 -3.20118,-3.416016 -3.20118,-9.216797 0,-5.886719 3.22266,-9.2597659 3.24414,-3.3730469 8.87305,-3.3730469 1.82617,0 3.5664,0.3867188 1.74024,0.3652344 3.37305,1.1171875 z"
           style="font-style:normal;font-variant:normal;font-weight:normal;font-stretch:normal;font-size:44px;font-family:'DejaVu Sans';-inkscape-font-specification:'DejaVu Sans, Normal';font-variant-ligatures:normal;font-variant-caps:normal;font-variant-numeric:normal;font-feature-settings:normal;text-align:start;writing-mode:lr-tb;text-anchor:start"
           id="path4013" />
      </g>
    </g>
  </g>
</svg>
