<?xml version="1.0" encoding="UTF-8" standalone="no"?>
<svg
   xmlns:dc="http://purl.org/dc/elements/1.1/"
   xmlns:cc="http://creativecommons.org/ns#"
   xmlns:rdf="http://www.w3.org/1999/02/22-rdf-syntax-ns#"
   xmlns:svg="http://www.w3.org/2000/svg"
   xmlns="http://www.w3.org/2000/svg"
   id="svg_null"
   version="1.1"
   viewBox="0 0 500 500">
  <metadata
     id="metadata3849">
    <rdf:RDF>
      <cc:Work
         rdf:about="">
        <dc:format>image/svg+xml</dc:format>
        <dc:type
           rdf:resource="http://purl.org/dc/dcmitype/StillImage" />
        <dc:title></dc:title>
      </cc:Work>
    </rdf:RDF>
  </metadata>
  <defs
     id="defs3847" />
  <g
     fill-rule="evenodd"
     fill="none"
     stroke-width="1"
     stroke="none"
     id="root">
    <g
       style="fill:#f33535"
       transform="matrix(1.9514487,0,0,1.9514487,6.980159,6.506728)"
       id="shape.primary">
      <g
         id="g3817">
        <path
           style="fill-opacity:0.6"
           id="path3801"
           d="M 16.397,233.62 0.877,249.138 V 0.862 L 31.91,218.105 Z M 233.607,16.377 249.123,0.862 V 249.138 L 218.094,31.892 233.608,16.377 Z" />
        <path
           style="fill-opacity:0.5"
           id="path3803"
           d="M 47.422,202.592 31.908,218.107 0.877,0.864 62.945,187.07 Z M 202.583,47.415 218.096,31.89 249.123,249.136 187.063,62.937 Z" />
        <path
           style="fill-opacity:0.4"
           id="path3805"
           d="M 78.456,171.554 62.942,187.072 0.877,0.863 93.972,156.039 Z M 171.549,78.45 187.065,62.935 249.123,249.136 156.036,93.968 Z" />
        <path
           style="fill-opacity:0.02999998"
           id="path3807"
           d="M 233.617,16.394 218.111,31.909 0.878,0.954 249.123,0.864 Z M 16.39,233.614 31.893,218.098 249.123,249.053 0.877,249.138 16.39,233.613 Z" />
        <path
           style="fill-opacity:0.05"
           id="path3809"
           d="M 202.592,47.431 187.086,62.954 0.878,0.954 218.113,31.907 202.593,47.431 Z M 47.407,202.576 62.921,187.046 249.121,249.053 31.891,218.1 Z" />
        <path
           style="fill-opacity:0.1"
           id="path3811"
           d="M 171.573,78.477 156.069,94.001 0.878,0.954 187.088,62.952 Z M 78.432,171.521 93.938,155.999 249.122,249.053 62.919,187.046 Z" />
        <path
           style="fill-opacity:0.2"
           id="path3813"
           d="M 140.557,109.521 125.003,125.003 0.877,0.952 156.071,93.999 Z M 109.45,140.486 124.995,125.002 249.123,249.055 93.936,156.001 Z" />
        <path
           style="fill-opacity:0.3"
           id="path3815"
           d="m 125,124.998 15.515,-15.517 15.52,-15.513 92.865,154.79 0.223,0.296 -0.124,-0.131 0.124,0.214 -0.296,-0.386 -123.83,-123.744 -15.508,15.51 L 93.971,156.039 1.105,1.247 0.877,0.953 1.007,1.084 0.877,0.864 1.18,1.257 Z" />
      </g>
      <g
         id="g3835">
        <path
           style="fill-opacity:0.6"
           id="path3819"
           d="M 16.39,125.002 H 0.877 l 124.126,-124.14 -93.1,124.14 z m 217.218,-0.007 15.515,0.008 -124.12,124.135 93.091,-124.143 z" />
        <path
           style="fill-opacity:0.5"
           id="path3821"
           d="M 47.422,125.002 H 31.901 L 125.003,0.862 62.945,125.002 Z m 155.161,0 15.513,-0.007 -93.094,124.143 62.06,-124.136 z" />
        <path
           style="fill-opacity:0.4"
           id="path3823"
           d="M 78.456,125.002 H 62.942 L 125.003,0.862 93.972,125.002 Z m 93.093,0 h 15.516 l -62.063,124.136 31.034,-124.143 z" />
        <path
           style="fill-opacity:0.02999998"
           id="path3825"
           d="M 233.608,125.012 H 218.094 L 124.961,0.91 249.123,125.002 Z M 16.39,124.995 h 15.513 l 93.14,124.1 L 0.877,125.003 Z" />
        <path
           style="fill-opacity:0.05"
           id="path3827"
           d="M 202.574,125.012 187.063,125.029 124.961,0.91 218.097,125.012 Z m -155.152,-0.026 15.523,-0.007 62.097,124.116 -93.141,-124.1 15.52,-0.01 z" />
        <path
           style="fill-opacity:0.1"
           id="path3829"
           d="M 171.549,125.029 156.036,125.036 124.963,0.91 187.065,125.029 Z m -93.093,-0.05 15.516,-0.017 31.07,124.133 -62.1,-124.116 z" />
        <path
           style="fill-opacity:0.2"
           id="path3831"
           d="M 140.515,125.036 125.001,125.002 124.963,0.91 156.038,125.036 Z m -31.032,-0.074 15.513,0.034 0.046,124.1 L 93.97,124.962 Z" />
        <path
           style="fill-opacity:0.3"
           id="path3833"
           d="m 125.002,124.996 h 15.512 15.523 l -30.961,123.845 -0.034,0.252 v -0.128 l -0.039,0.172 0.039,-0.347 -0.046,-123.786 H 109.483 93.97 L 124.929,1.166 124.963,0.912 v 0.12 l 0.039,-0.169 -0.04,0.345 z" />
      </g>
    </g>
    <g
       transform="translate(40.000000, 354.000000)"
       id="Group">
      <rect
         height="46"
         width="420"
         y="0"
         x="0"
         id="Rectangle-10" />
    </g>
  </g>
</svg>
