<?xml version="1.0" encoding="UTF-8" standalone="no"?>
<svg
   xmlns:dc="http://purl.org/dc/elements/1.1/"
   xmlns:cc="http://creativecommons.org/ns#"
   xmlns:rdf="http://www.w3.org/1999/02/22-rdf-syntax-ns#"
   xmlns:svg="http://www.w3.org/2000/svg"
   xmlns="http://www.w3.org/2000/svg"
   xmlns:sodipodi="http://sodipodi.sourceforge.net/DTD/sodipodi-0.dtd"
   xmlns:inkscape="http://www.inkscape.org/namespaces/inkscape"
   inkscape:version="1.0 (4035a4fb49, 2020-05-01)"
   sodipodi:docname="airplay-speaker.svg"
   id="svg754"
   version="1.1"
   width="501.33646"
   viewBox="0 0 58.750366 47.582124"
   height="468.50092">
  <metadata
     id="metadata760">
    <rdf:RDF>
      <cc:Work
         rdf:about="">
        <dc:format>image/svg+xml</dc:format>
        <dc:type
           rdf:resource="http://purl.org/dc/dcmitype/StillImage" />
        <dc:title></dc:title>
      </cc:Work>
    </rdf:RDF>
  </metadata>
  <defs
     id="defs758" />
  <sodipodi:namedview
     inkscape:current-layer="g862"
     inkscape:window-maximized="1"
     inkscape:window-y="0"
     inkscape:window-x="0"
     inkscape:cy="222.53457"
     inkscape:cx="342.34888"
     inkscape:zoom="1.6752354"
     showgrid="false"
     id="namedview756"
     inkscape:window-height="1410"
     inkscape:window-width="3440"
     inkscape:pageshadow="2"
     inkscape:pageopacity="0"
     guidetolerance="10"
     gridtolerance="10"
     objecttolerance="10"
     borderopacity="1"
     bordercolor="#666666"
     pagecolor="#ffffff" />
  <g
     transform="matrix(0.82936774,0,0,0.82936774,8.9883029,-4.0001925)"
     style="fill:#666666"
     fill-rule="evenodd"
     fill="none"
     id="Page-1">
    <g
       style="fill:#666666"
       transform="translate(-1)"
       fill-rule="nonzero"
       fill="rgb(0,0,0)"
       id="017---Bluetooth-Speaker">
      <path
         style="fill:#666666"
         d="M 55.024,22.049 C 53.689,18.724 52.115,18 51,18 H 11 C 9.886,18 8.312,18.724 6.976,22.049 3.535,22.551 1,27.944 1,35 1,42.056 3.535,47.449 6.976,47.951 8.311,51.276 9.885,52 11,52 h 40 c 1.114,0 2.688,-0.724 4.024,-4.049 C 58.465,47.449 61,42.056 61,35 61,27.944 58.465,22.551 55.024,22.049 Z M 3,35 C 3,29.86 4.491,25.966 6.179,24.567 5.3648467,27.984071 4.968945,31.487415 5,35 4.9691392,38.515331 5.3657145,42.021378 6.181,45.441 4.5,44.052 3,40.151 3,35 Z M 51,50 H 11 C 10.455,50 9.505,49.124 8.623,46.659 7.4700893,42.882674 6.9223087,38.947632 7,35 6.9221609,31.054472 7.4692621,27.121486 8.621,23.347 9.505,20.876 10.455,20 11,20 h 40 c 0.545,0 1.495,0.876 2.377,3.341 C 54.529911,27.117326 55.077691,31.052368 55,35 55.07784,38.945528 54.530738,42.878514 53.379,46.653 52.5,49.124 51.545,50 51,50 Z m 4.821,-4.567 C 56.635153,42.015929 57.031055,38.512585 57,35 57.030861,31.484669 56.634285,27.978621 55.819,24.559 57.5,25.948 59,29.849 59,35 c 0,5.151 -1.492,9.034 -3.179,10.433 z"
         id="Shape" />
      <path
         style="fill:#666666"
         d="m 12.588,26.069 c 3.829573,-2.758715 8.994427,-2.758715 12.824,0 0.289028,0.210072 0.668173,0.249992 0.994615,0.104723 0.326441,-0.145269 0.550586,-0.453659 0.588,-0.809 0.03741,-0.355342 -0.117587,-0.703651 -0.406615,-0.913723 -4.530842,-3.268083 -10.645158,-3.268083 -15.176,0 -0.289028,0.210072 -0.444029,0.558381 -0.406615,0.913723 0.03741,0.355341 0.261559,0.663731 0.588,0.809 0.326442,0.145269 0.705587,0.105349 0.994615,-0.104723 z"
         id="path701" />
      <path
         style="fill:#666666"
         d="m 25.412,43.931 c -3.829573,2.758715 -8.994427,2.758715 -12.824,0 -0.446798,-0.324743 -1.072257,-0.225798 -1.397,0.221 -0.324743,0.446798 -0.225798,1.072257 0.221,1.397 4.530842,3.268083 10.645158,3.268083 15.176,0 0.289028,-0.210072 0.444029,-0.558381 0.406615,-0.913723 -0.03741,-0.355342 -0.261559,-0.663731 -0.588,-0.809 C 26.080173,43.681008 25.701028,43.720928 25.412,43.931 Z"
         id="path703" />
      <path
         style="fill:#666666"
         d="m 19,26 c -4.970563,0 -9,4.029437 -9,9 0,4.970563 4.029437,9 9,9 4.970563,0 9,-4.029437 9,-9 -0.0055,-4.968278 -4.031722,-8.994489 -9,-9 z m 0,16 c -3.865993,0 -7,-3.134007 -7,-7 0,-3.865993 3.134007,-7 7,-7 3.865993,0 7,3.134007 7,7 -0.0044,3.864166 -3.135834,6.995591 -7,7 z"
         id="path705" />
      <circle
         style="fill:#666666"
         r="1"
         cy="32"
         cx="17"
         id="Oval" />
      <circle
         style="fill:#666666"
         r="1"
         cy="35"
         cx="15"
         id="circle708" />
      <circle
         style="fill:#666666"
         r="1"
         cy="35"
         cx="19"
         id="circle710" />
      <circle
         style="fill:#666666"
         r="1"
         cy="35"
         cx="23"
         id="circle712" />
      <circle
         style="fill:#666666"
         r="1"
         cy="32"
         cx="21"
         id="circle714" />
      <circle
         style="fill:#666666"
         r="1"
         cy="38"
         cx="17"
         id="circle716" />
      <circle
         style="fill:#666666"
         r="1"
         cy="38"
         cx="21"
         id="circle718" />
      <path
         style="fill:#666666"
         d="m 36.588,26.069 c 3.829573,-2.758715 8.994427,-2.758715 12.824,0 0.289028,0.210072 0.668173,0.249992 0.994615,0.104723 0.326441,-0.14527 0.550586,-0.453659 0.588,-0.809 0.03741,-0.355342 -0.117587,-0.703651 -0.406615,-0.913723 -4.530842,-3.268083 -10.645158,-3.268083 -15.176,0 -0.289028,0.210072 -0.444029,0.558381 -0.406615,0.913723 0.03741,0.355341 0.261559,0.66373 0.588,0.809 0.326442,0.145269 0.705587,0.105349 0.994615,-0.104723 z"
         id="path720" />
      <path
         style="fill:#666666"
         d="m 49.412,43.931 c -3.829573,2.758715 -8.994427,2.758715 -12.824,0 -0.289028,-0.210072 -0.668173,-0.249992 -0.994615,-0.104723 -0.326441,0.145269 -0.550586,0.453658 -0.588,0.809 -0.03741,0.355342 0.117587,0.703651 0.406615,0.913723 4.530842,3.268083 10.645158,3.268083 15.176,0 0.289028,-0.210072 0.444029,-0.558381 0.406615,-0.913723 -0.03741,-0.355342 -0.261559,-0.663731 -0.588,-0.809 C 50.080173,43.681008 49.701028,43.720928 49.412,43.931 Z"
         id="path722" />
      <path
         style="fill:#666666"
         d="m 43,26 c -4.970563,0 -9,4.029437 -9,9 0,4.970563 4.029437,9 9,9 4.970563,0 9,-4.029437 9,-9 -0.0055,-4.968278 -4.031722,-8.994489 -9,-9 z m 0,16 c -3.865993,0 -7,-3.134007 -7,-7 0,-3.865993 3.134007,-7 7,-7 3.865993,0 7,3.134007 7,7 -0.0044,3.864166 -3.135834,6.995591 -7,7 z"
         id="path724" />
      <circle
         style="fill:#666666"
         r="1"
         cy="32"
         cx="41"
         id="circle726" />
      <circle
         style="fill:#666666"
         r="1"
         cy="35"
         cx="39"
         id="circle728" />
      <circle
         style="fill:#666666"
         r="1"
         cy="35"
         cx="43"
         id="circle730" />
      <circle
         style="fill:#666666"
         r="1"
         cy="35"
         cx="47"
         id="circle732" />
      <circle
         style="fill:#666666"
         r="1"
         cy="32"
         cx="45"
         id="circle734" />
      <circle
         style="fill:#666666"
         r="1"
         cy="38"
         cx="41"
         id="circle736" />
      <circle
         style="fill:#666666"
         r="1"
         cy="38"
         cx="45"
         id="circle738" />
      <path
         style="fill:#666666"
         d="M 43,7.264 C 43.399186,7.2641591 43.760227,7.0268964 43.91847,6.6604152 44.076713,6.2939341 44.001841,5.8684482 43.728,5.578 40.450559,2.0226904 35.835478,2.3216e-4 31,2.3216e-4 c -4.835478,0 -9.450559,2.02245824 -12.728,5.57776784 -0.245084,0.2600893 -0.332795,0.6311727 -0.230093,0.9734665 0.102701,0.3422938 0.380213,0.6037955 0.728,0.686 C 19.117693,7.319671 19.482916,7.2100893 19.728,6.95 22.627115,3.7953484 26.715529,1.9999332 31,1.9999332 c 4.284471,0 8.372885,1.7954152 11.272,4.9500668 0.189038,0.2005016 0.452435,0.3141098 0.728,0.314 z"
         id="path740" />
      <path
         style="fill:#666666"
         d="m 40.333,10.092 c 0.399186,1.59e-4 0.760227,-0.2371036 0.91847,-0.6035848 C 41.409713,9.1219341 41.334841,8.6964482 41.061,8.406 38.469946,5.5963046 34.822035,3.9980857 31,3.9980857 c -3.822035,0 -7.469946,1.5982189 -10.061,4.4079143 -0.378867,0.403444 -0.358944,1.0376326 0.0445,1.4165 0.403444,0.378867 1.037633,0.358944 1.4165,-0.0445 2.212727,-2.4090379 5.333972,-3.7802141 8.605,-3.7802141 3.271028,0 6.392273,1.3711762 8.605,3.7802141 0.187844,0.1992414 0.449174,0.312737 0.723,0.314 z"
         id="path742" />
      <path
         style="fill:#666666"
         d="m 37.667,12.92 c 0.399186,1.59e-4 0.760227,-0.237104 0.91847,-0.603585 C 38.743713,11.949934 38.668841,11.524448 38.395,11.234 36.489977,9.1698163 33.808909,7.9958036 31,7.9958036 c -2.808909,0 -5.489976,1.1740127 -7.395,3.2381964 -0.245084,0.260089 -0.332795,0.631173 -0.230093,0.973467 0.102701,0.342293 0.380214,0.603795 0.728,0.686 0.347786,0.0822 0.713009,-0.02738 0.958093,-0.287467 1.526855,-1.663246 3.681197,-2.6100166 5.939,-2.6100166 2.257803,0 4.412145,0.9467706 5.939,2.6100166 0.189038,0.200502 0.452435,0.31411 0.728,0.314 z"
         id="path744" />
      <path
         style="fill:#666666"
         d="m 26.272,14.063 c -0.378867,0.402063 -0.360063,1.035133 0.042,1.414 0.402063,0.378867 1.035133,0.360063 1.414,-0.042 0.83951,-0.919322 2.027039,-1.443061 3.272,-1.443061 1.244962,0 2.43249,0.523739 3.272,1.443061 0.245084,0.260089 0.610307,0.369671 0.958093,0.287467 0.347787,-0.08221 0.625299,-0.343707 0.728001,-0.686 C 36.060795,14.694173 35.973084,14.323089 35.728,14.063 34.5103,12.742767 32.796054,11.991807 31,11.991807 c -1.796054,0 -3.5103,0.75096 -4.728,2.071193 z"
         id="path746" />
      <path
         style="fill:#666666"
         d="m 49.816,11.319 c 0.731187,0.31415 1.557236,0.324903 2.296353,0.02989 C 52.851471,11.053885 53.443086,10.477289 53.757,9.746 l 2.189,-5.1 c 0.413372,0.5699869 0.97359,1.0171936 1.621,1.294 0.508102,0.2178763 1.096624,-0.017398 1.3145,-0.5255 C 59.099376,4.906398 58.864102,4.3178763 58.356,4.1 57.571205,3.6504864 57.060569,2.8408867 56.993,1.939 56.966108,1.4760857 56.624515,1.0923825 56.167824,1.0120982 55.711132,0.93181382 55.259157,1.1760114 55.076,1.602 L 53.031,6.364 C 52.156386,5.5412432 50.875429,5.3192688 49.774976,5.7997704 48.674524,6.280272 47.966601,7.3706711 47.975531,8.5714201 47.984461,9.772169 48.708523,10.851919 49.816,11.316 Z M 50.082,8.167 C 50.216465,7.8290717 50.523801,7.5907928 50.884574,7.5447594 51.245347,7.498726 51.602669,7.6521971 51.817681,7.9455332 52.032694,8.2388693 52.071493,8.6258144 51.919,8.956 51.782222,9.2907485 51.475378,9.5255758 51.11652,9.5701362 50.757662,9.6146965 50.402703,9.4620469 50.188208,9.1709168 49.973714,8.8797867 49.933103,8.4955365 50.082,8.166 Z"
         id="path748" />
      <path
         style="fill:#666666"
         d="M 6.215,6.516 C 5.8174808,6.1333734 5.1851738,6.1450082 4.802,6.542 4.1052735,7.1169409 3.1688448,7.3090961 2.302,7.055 1.8586866,6.9139605 1.3766658,7.0972558 1.1390761,7.4972183 0.90148637,7.8971809 0.97108923,8.4081571 1.307,8.73 l 3.733,3.6 C 3.7993969,12.95032 3.1475401,14.341743 3.4649756,15.691976 3.7824112,17.042208 4.9859579,17.997432 6.373,18 H 6.431 C 7.644369,17.977211 8.7244916,17.225636 9.1675705,16.095828 9.6106494,14.966021 9.3293983,13.680553 8.455,12.839 L 4.46,8.991 C 5.1385141,8.8044841 5.7539237,8.4378644 6.241,7.93 6.4250647,7.7390464 6.5257324,7.482793 6.5208564,7.2176151 6.5159805,6.9524372 6.4059602,6.7000578 6.215,6.516 Z m 0.879,9.178 C 6.9108097,15.885267 6.6588036,15.99543 6.394,16 6.0367344,16.0036 5.7047014,15.816275 5.5229746,15.50866 c -0.1817269,-0.307614 -0.1855388,-0.688812 -0.01,-1 C 5.6885134,14.197473 6.0167344,14.003573 6.374,14 6.775126,13.99999 7.1374402,14.239672 7.2943461,14.608836 7.4512521,14.978001 7.3723815,15.405199 7.094,15.694 Z"
         id="path750" />
    </g>
  </g>
  <g
     transform="matrix(0.04603447,0,0,0.04603447,0,30.868286)"
     id="g856">
    <g
       transform="matrix(1.1935058,0,0,1.1935058,0,-84.21356)"
       id="g869">
      <g
         id="g862">
        <rect
           y="13.710406"
           x="13.782475"
           height="331.69199"
           width="486.39621"
           id="rect858"
           style="fill:#ffffff;stroke-width:3.15762" />
        <path
           d="M 477.86719,-4.2499921e-6 H 34.132812 C 15.289062,0.01952695 0.0195312,15.289058 0,34.132808 V 324.26562 c 0.0195312,18.84375 15.289062,34.11329 34.132812,34.13282 H 146.41016 l -32.60157,49.83593 c -3.53906,5.40625 -3.82812,12.32032 -0.74609,18 2.9375,5.5 8.65625,8.94532 14.89063,8.96485 h 256.09374 c 6.23438,-0.0195 11.95313,-3.46485 14.89063,-8.96485 3.07812,-5.67968 2.79687,-12.59375 -0.74219,-18 L 365.59375,358.39844 H 477.86719 C 496.71094,358.37891 511.98047,343.10937 512,324.26562 V 34.132808 C 511.98047,15.289058 496.71094,0.01952695 477.86719,-4.2499921e-6 Z M 270.14844,212.52344 c -3.09375,-4.8125 -8.42188,-7.72266 -14.14453,-7.72266 -5.72266,-0.004 -11.05469,2.90625 -14.15235,7.71484 l -61.94531,94.6836 H 51.199219 V 51.199215 H 460.80078 V 307.19922 H 332.09375 Z M 384.04687,418.13281 128.08594,417.58203 255.86719,221.86719 383.91406,417.58203 Z m 110.88672,-93.86719 c -0.0117,9.42188 -7.64453,17.0586 -17.0664,17.06641 H 354.42578 l -11.16797,-17.06641 h 126.07422 c 4.71484,0 8.53516,-3.82031 8.53516,-8.53125 V 42.667965 c 0,-4.714844 -3.82032,-8.535157 -8.53516,-8.535157 H 42.667969 c -4.714844,0 -8.535157,3.820313 -8.535157,8.535157 V 315.73437 c 0,4.71094 3.820313,8.53125 8.535157,8.53125 H 168.74219 l -11.16797,17.06641 H 34.132812 c -9.421874,-0.008 -17.054687,-7.64453 -17.066406,-17.06641 V 34.132808 c 0.01172,-9.421874 7.644532,-17.054687 17.066406,-17.066406 H 477.86719 c 9.42187,0.01172 17.05468,7.644532 17.0664,17.066406 z m 0,0"
           id="path839" />
      </g>
    </g>
  </g>
</svg>
