<svg height="512pt" viewBox="0 -38 512 512" width="512pt" xmlns="http://www.w3.org/2000/svg"><path d="m477.867188 0h-443.734376c-18.84375.0195312-34.1132808 15.289062-34.132812 34.132812v290.132813c.0195312 18.84375 15.289062 34.113281 34.132812 34.132813h112.277344l-32.601562 49.835937c-3.539063 5.40625-3.828125 12.320313-.746094 18 2.9375 5.5 8.65625 8.945313 14.890625 8.964844h256.09375c6.234375-.019531 11.953125-3.464844 14.890625-8.964844 3.078125-5.679687 2.796875-12.59375-.742188-18l-32.601562-49.835937h112.273438c18.84375-.019532 34.113281-15.289063 34.132812-34.132813v-290.132813c-.019531-18.84375-15.289062-34.1132808-34.132812-34.132812zm-207.71875 212.523438c-3.09375-4.8125-8.421876-7.722657-14.144532-7.722657-5.722656-.003906-11.054687 2.90625-14.152344 7.714844l-61.945312 94.683594h-128.707031v-256h409.601562v256h-128.707031zm113.898437 205.609374-255.960937-.550781 127.78125-195.714843 128.046874 195.714843zm110.886719-93.867187c-.011719 9.421875-7.644532 17.058594-17.066406 17.066406h-123.441407l-11.167969-17.066406h126.074219c4.714844 0 8.535157-3.820313 8.535157-8.53125v-273.066406c0-4.714844-3.820313-8.535157-8.535157-8.535157h-426.664062c-4.714844 0-8.535157 3.820313-8.535157 8.535157v273.066406c0 4.710937 3.820313 8.53125 8.535157 8.53125h126.074219l-11.167969 17.066406h-123.441407c-9.421874-.007812-17.054687-7.644531-17.066406-17.066406v-290.132813c.011719-9.421874 7.644532-17.054687 17.066406-17.066406h443.734376c9.421874.011719 17.054687 7.644532 17.066406 17.066406zm0 0"/><path d="m85.332031 68.265625h-8.53125c-4.714843 0-8.535156 3.820313-8.535156 8.535156 0 4.710938 3.820313 8.53125 8.535156 8.53125h8.53125c4.714844 0 8.535157-3.820312 8.535157-8.53125 0-4.714843-3.820313-8.535156-8.535157-8.535156zm0 0"/><path d="m256 68.265625h-136.535156c-4.710938 0-8.53125 3.820313-8.53125 8.535156 0 4.710938 3.820312 8.53125 8.53125 8.53125h136.535156c4.710938 0 8.535156-3.820312 8.535156-8.53125 0-4.714843-3.824218-8.535156-8.535156-8.535156zm0 0"/></svg>