<?xml version="1.0" encoding="iso-8859-1"?>
<!-- Generator: Adobe Illustrator 19.0.0, SVG Export Plug-In . SVG Version: 6.00 Build 0)  -->
<svg version="1.1" id="Capa_1" xmlns="http://www.w3.org/2000/svg" xmlns:xlink="http://www.w3.org/1999/xlink" x="0px" y="0px"
	 viewBox="0 0 512 512" style="enable-background:new 0 0 512 512;" xml:space="preserve">
<g>
	<g>
		<g>
			<path d="M404.799,339.879L295.757,256l109.042-83.879c8.389-6.492,13.306-16.497,13.321-27.104
				c-0.048-10.607-4.994-20.597-13.4-27.067L259.653,7.017c-0.392-0.298-0.809-0.563-1.246-0.792
				C252.712,2.177,245.899,0.002,238.911,0c-19.161,0.695-34.288,16.515-34.125,35.688v149.279l-62.325-52.691
				c-3.575-2.9-8.171-4.233-12.743-3.696c-4.572,0.537-8.734,2.897-11.541,6.546L97.395,162.15
				c-5.587,7.32-4.389,17.747,2.713,23.608L184.453,256l-84.233,70.154c-7.18,5.845-8.429,16.331-2.825,23.7l20.783,27.021
				c2.825,3.673,7.022,6.04,11.627,6.556c4.605,0.516,9.222-0.862,12.79-3.819l62.192-52.579v149.279
				c-0.163,19.174,14.967,34.995,34.129,35.688c6.977-0.003,13.781-2.173,19.471-6.212c0.444-0.232,0.868-0.501,1.267-0.804
				L404.72,394.05c8.432-6.448,13.384-16.451,13.4-27.066S413.212,346.352,404.799,339.879z M394.353,380.492L250.328,490.629
				c-0.388,0.212-0.76,0.453-1.112,0.721c-2.941,2.3-6.562,3.56-10.296,3.583c-9.675-0.805-17.106-8.912-17.067-18.621V308.646
				c0-3.322-1.927-6.342-4.941-7.74c-3.013-1.398-6.564-0.921-9.101,1.224l-76.108,64.337l-20.671-27.108l92.217-76.8
				c1.946-1.622,3.071-4.025,3.071-6.558c0-2.533-1.125-4.936-3.071-6.558l-92.329-76.888l20.658-27.133l76.233,64.45
				c2.537,2.145,6.088,2.623,9.101,1.224s4.941-4.419,4.94-7.741V35.688c-0.04-9.707,7.389-17.814,17.063-18.621
				c3.735,0.022,7.357,1.283,10.3,3.583c0.347,0.266,0.715,0.505,1.1,0.713l144.038,110.146c4.216,3.224,6.693,8.227,6.7,13.534
				c0.007,5.308-2.455,10.317-6.662,13.553l-117.833,90.642c-2.099,1.615-3.329,4.114-3.329,6.763s1.23,5.147,3.329,6.763
				l117.833,90.642c4.207,3.236,6.67,8.245,6.662,13.553C401.046,372.265,398.57,377.268,394.353,380.492z"/>
			<path d="M264.52,213.2c4.713,0,8.533-3.82,8.533-8.533V103.204l54.846,41.941l-34.45,26.5c-3.714,2.881-4.399,8.222-1.533,11.947
				c2.866,3.725,8.205,4.431,11.941,1.578l43.267-33.283c2.103-1.618,3.333-4.123,3.329-6.776s-1.242-5.154-3.35-6.766l-77.4-59.187
				c-2.579-1.971-6.053-2.309-8.964-0.87c-2.91,1.438-4.752,4.403-4.753,7.649v118.729C255.987,209.38,259.807,213.2,264.52,213.2z"
				/>
			<path d="M347.124,360.113l-43.267-33.283c-3.736-2.852-9.075-2.147-11.941,1.578c-2.866,3.725-2.181,9.066,1.533,11.947
				l34.45,26.5l-54.846,41.941V307.333c0-4.713-3.82-8.533-8.533-8.533s-8.533,3.82-8.533,8.533v118.729
				c0,3.247,1.842,6.212,4.753,7.65c2.911,1.438,6.385,1.101,8.964-0.871l77.4-59.187c2.108-1.612,3.346-4.112,3.35-6.766
				C350.458,364.235,349.227,361.731,347.124,360.113z"/>
		</g>
	</g>
</g>
<g>
</g>
<g>
</g>
<g>
</g>
<g>
</g>
<g>
</g>
<g>
</g>
<g>
</g>
<g>
</g>
<g>
</g>
<g>
</g>
<g>
</g>
<g>
</g>
<g>
</g>
<g>
</g>
<g>
</g>
</svg>
