<svg height="512" viewBox="0 0 60 60" width="512" xmlns="http://www.w3.org/2000/svg"><g id="Page-1" fill="none" fill-rule="evenodd"><g id="001---Browser" fill="rgb(0,0,0)" fill-rule="nonzero"><path id="Shape" d="m57 0h-54c-1.65685425 0-3 1.34314575-3 3v40c0 1.6568542 1.34314575 3 3 3h6.512c3.2925148 8.4422978 11.4263751 14.0006347 20.488 14.0006347s17.1954852-5.5583369 20.488-14.0006347h6.512c1.6568542 0 3-1.3431458 3-3v-40c0-1.65685425-1.3431458-3-3-3zm-54 2h54c.5522847 0 1 .44771525 1 1v5h-56v-5c0-.55228475.44771525-1 1-1zm15.027 37c.0537434 2.9464777.4510966 5.8766223 1.184 8.731-2.010958.2769721-4.0067893.6544446-5.98 1.131-1.9145889-2.9477429-3.0119919-6.3510724-3.18-9.862zm12.973-10.014c2.656-.032 5.259-.185 7.762-.462.7443823 2.7661088 1.1513397 5.6121244 1.212 8.476h-8.974zm0-2v-8.881c2.913.61 5.5 3.853 7.141 8.472-2.307.242-4.699.379-7.141.409zm-2-8.881v8.881c-2.442-.03-4.834-.167-7.141-.409 1.641-4.619 4.228-7.862 7.141-8.472zm0 10.881v8.014h-8.974c.0606603-2.8638756.4676177-5.7098912 1.212-8.476 2.503.276 5.106.43 7.762.462zm-8.974 10.014h8.974v8.014c-2.656.032-5.259.185-7.762.462-.7443823-2.7661088-1.1513397-5.6121244-1.212-8.476zm8.974 10.014v8.886c-2.913-.61-5.5-3.853-7.141-8.472 2.307-.247 4.699-.384 7.141-.414zm2 8.886v-8.886c2.442.03 4.834.167 7.141.409-1.641 4.619-4.228 7.862-7.141 8.477zm0-10.881v-8.019h8.974c-.0606603 2.8638756-.4676177 5.7098912-1.212 8.476-2.503-.276-5.106-.43-7.762-.462zm10.973-8.019h7.976c-.1680081 3.5109276-1.2654111 6.9142571-3.18 9.862-1.9732107-.4765554-3.969042-.8540279-5.98-1.131.7329034-2.8543777 1.1302566-5.7845223 1.184-8.731zm0-2c-.0537434-2.9464777-.4510966-5.8766223-1.184-8.731 2.010958-.2769721 4.0067893-.6544446 5.98-1.131 1.9145889 2.9477429 3.0119919 6.3510724 3.18 9.862zm-1.762-10.671c-.839043-2.7297151-2.2538697-5.2476905-4.149-7.384 3.703614 1.1861612 6.9826182 3.4232355 9.438 6.439-1.681.382-3.452.697-5.289.945zm-20.422 0c-1.837-.248-3.608-.563-5.29-.945 2.455651-3.0159236 5.7350226-5.2530116 9.439-6.439-1.8951303 2.1363095-3.309957 4.6542849-4.149 7.384zm-6.558.809c1.9732107.4765554 3.969042.8540279 5.98 1.131-.7329034 2.8543777-1.1302566 5.7845223-1.184 8.731h-7.976c.1680081-3.5109276 1.2654111-6.9142571 3.18-9.862zm1.269 23.478c1.682-.382 3.453-.7 5.29-.945.839043 2.7297151 2.2538697 5.2476905 4.149 7.384-3.7039774-1.1859884-6.983349-3.4230764-9.439-6.439zm21.563 6.439c1.8951303-2.1363095 3.309957-4.6542849 4.149-7.384 1.837.248 3.608.563 5.29.945-2.4559202 3.0160827-5.7356593 5.2531844-9.44 6.439zm20.937-13.055h-5.839c2.5522641-8.9750125-.8347403-18.583795-8.4508069-23.9745677-7.6160666-5.3907728-17.8043196-5.3907728-25.4203862 0-7.61606663 5.3907727-11.00307097 14.9995552-8.4508069 23.9745677h-5.839c-.55228475 0-1-.4477153-1-1v-33h56v33c0 .5522847-.4477153 1-1 1z"/><circle id="Oval" cx="5" cy="5" r="1"/><circle id="Oval" cx="9" cy="5" r="1"/><circle id="Oval" cx="13" cy="5" r="1"/><path id="Shape" d="m27 6h6c.5522847 0 1-.44771525 1-1s-.4477153-1-1-1h-6c-.5522847 0-1 .44771525-1 1s.4477153 1 1 1z"/><path id="Shape" d="m44 6h11c.5522847 0 1-.44771525 1-1s-.4477153-1-1-1h-11c-.5522847 0-1 .44771525-1 1s.4477153 1 1 1z"/><path id="Shape" d="m5 15h2c.55228475 0 1-.4477153 1-1s-.44771525-1-1-1h-2c-.55228475 0-1 .4477153-1 1s.44771525 1 1 1z"/><path id="Shape" d="m7 21h-2c-.55228475 0-1 .4477153-1 1s.44771525 1 1 1h2c.55228475 0 1-.4477153 1-1s-.44771525-1-1-1z"/><path id="Shape" d="m20 13h-9c-.5522847 0-1 .4477153-1 1s.4477153 1 1 1h9c.5522847 0 1-.4477153 1-1s-.4477153-1-1-1z"/><path id="Shape" d="m13 17h-8c-.55228475 0-1 .4477153-1 1s.44771525 1 1 1h8c.5522847 0 1-.4477153 1-1s-.4477153-1-1-1z"/></g></g></svg>