<?xml version="1.0" encoding="iso-8859-1"?>
<!-- Generator: Adobe Illustrator 19.0.0, SVG Export Plug-In . SVG Version: 6.00 Build 0)  -->
<svg version="1.1" id="Layer_1" xmlns="http://www.w3.org/2000/svg" xmlns:xlink="http://www.w3.org/1999/xlink" x="0px" y="0px"
	 viewBox="0 0 503.608 503.608" style="enable-background:new 0 0 503.608 503.608;" xml:space="preserve">
<g>
	<g>
		<path d="M386.099,486.82H276.984v-35.837c5.013-2.903,8.393-8.311,8.393-14.523v-33.572h8.393c4.636,0,8.393-3.758,8.393-8.393
			V235.018c0-4.636-3.758-8.393-8.393-8.393v-25.18c0-4.636-3.758-8.393-8.393-8.393V83.948c0.001-0.26-0.015-0.521-0.039-0.783
			c-0.005-0.055-0.01-0.11-0.016-0.165c-0.027-0.242-0.061-0.482-0.11-0.724c-0.015-0.072-0.035-0.142-0.052-0.214
			c-0.074-0.32-0.166-0.637-0.281-0.954c-0.073-0.203-0.15-0.403-0.237-0.598c-0.05-0.111-0.103-0.22-0.159-0.33
			c-0.146-0.29-0.304-0.572-0.481-0.842c-0.013-0.02-0.022-0.042-0.035-0.062c-8.284-12.423-8.284-28.624,0-41.047
			c0.064-0.097,0.109-0.198,0.169-0.295c0.114-0.188,0.227-0.376,0.327-0.573c0.098-0.191,0.182-0.384,0.263-0.577
			c0.057-0.136,0.113-0.271,0.162-0.41c0.083-0.232,0.154-0.464,0.216-0.698c0.031-0.119,0.06-0.237,0.086-0.358
			c0.051-0.235,0.092-0.47,0.121-0.706c0.019-0.147,0.032-0.294,0.043-0.442c0.014-0.2,0.023-0.399,0.023-0.599
			c0.001-0.199-0.009-0.397-0.023-0.597c-0.011-0.149-0.024-0.296-0.043-0.444c-0.029-0.236-0.071-0.47-0.121-0.705
			c-0.026-0.12-0.055-0.239-0.086-0.358c-0.061-0.234-0.132-0.465-0.216-0.697c-0.05-0.139-0.106-0.275-0.163-0.412
			c-0.081-0.193-0.165-0.385-0.262-0.575c-0.1-0.197-0.213-0.386-0.328-0.575c-0.06-0.097-0.104-0.198-0.168-0.294l-16.787-25.18
			C265.625,1.403,263.004,0,260.198,0h-16.787c-2.806,0-5.427,1.403-6.984,3.738l-16.787,25.18
			c-0.064,0.096-0.108,0.197-0.168,0.295c-0.115,0.189-0.228,0.377-0.327,0.574c-0.098,0.19-0.181,0.383-0.263,0.576
			c-0.057,0.136-0.113,0.272-0.163,0.411c-0.083,0.231-0.154,0.463-0.216,0.697c-0.031,0.119-0.06,0.238-0.086,0.359
			c-0.051,0.235-0.092,0.469-0.121,0.705c-0.019,0.147-0.032,0.294-0.043,0.443c-0.014,0.2-0.023,0.399-0.023,0.598
			c-0.001,0.199,0.009,0.398,0.023,0.598c0.011,0.148,0.024,0.295,0.043,0.442c0.029,0.236,0.071,0.47,0.121,0.705
			c0.026,0.12,0.055,0.239,0.086,0.358c0.061,0.234,0.132,0.465,0.216,0.697c0.05,0.139,0.106,0.275,0.163,0.411
			c0.081,0.193,0.165,0.385,0.263,0.576c0.1,0.197,0.213,0.386,0.328,0.574c0.06,0.097,0.104,0.198,0.168,0.294
			c8.284,12.423,8.284,28.624,0,41.047c-0.014,0.02-0.022,0.042-0.035,0.062c-0.177,0.27-0.335,0.552-0.481,0.842
			c-0.056,0.11-0.109,0.219-0.159,0.33c-0.087,0.195-0.164,0.395-0.237,0.598c-0.115,0.316-0.207,0.634-0.281,0.954
			c-0.016,0.072-0.037,0.142-0.052,0.214c-0.049,0.242-0.084,0.482-0.111,0.724c-0.006,0.054-0.011,0.109-0.016,0.164
			c-0.024,0.263-0.04,0.524-0.039,0.784v109.101c-4.636,0-8.393,3.758-8.393,8.393v25.18c-4.636,0-8.393,3.758-8.393,8.393v159.475
			c0,4.636,3.758,8.393,8.393,8.393h8.393v33.572c0,6.213,3.381,11.621,8.393,14.523v35.837H117.509
			c-4.636,0-8.393,3.758-8.393,8.393s3.758,8.393,8.393,8.393h117.474c0.011,0,0.022,0.002,0.034,0.002h33.574
			c0.011,0,0.022-0.002,0.034-0.002h117.474c4.636,0,8.393-3.758,8.393-8.393S390.735,486.82,386.099,486.82z M285.378,386.1h-8.36
			c-0.011,0-0.022-0.002-0.034-0.002h-50.361c-0.011,0-0.022,0.002-0.034,0.002h-8.36V243.412h67.148V386.1z M263.651,75.541
			h-23.694c3.578-10.895,3.578-22.679,0-33.574h23.694C260.073,52.862,260.073,64.646,263.651,75.541z M235.017,92.33h33.574v16.785
			h-33.574V92.33z M247.903,16.787h7.803l5.596,8.393h-18.994L247.903,16.787z M235.017,125.902h33.574v67.149h-33.574V125.902z
			 M226.624,209.838h50.361v16.787h-50.361V209.838z M268.591,402.887v33.572h-33.574v-33.572H268.591z M243.411,453.248h16.787
			v33.572h-16.787V453.248z"/>
	</g>
</g>
<g>
</g>
<g>
</g>
<g>
</g>
<g>
</g>
<g>
</g>
<g>
</g>
<g>
</g>
<g>
</g>
<g>
</g>
<g>
</g>
<g>
</g>
<g>
</g>
<g>
</g>
<g>
</g>
<g>
</g>
</svg>
