<?xml version="1.0" encoding="iso-8859-1"?>
<!-- Generator: Adobe Illustrator 19.0.0, SVG Export Plug-In . SVG Version: 6.00 Build 0)  -->
<svg version="1.1" id="Capa_1" xmlns="http://www.w3.org/2000/svg" xmlns:xlink="http://www.w3.org/1999/xlink" x="0px" y="0px"
	 viewBox="0 0 511.892 511.892" style="enable-background:new 0 0 511.892 511.892;" xml:space="preserve">
<g>
	<g>
		<g>
			<path d="M243.811,118.625l19.053-10.852c3.234-1.842,4.362-5.957,2.52-9.191s-5.957-4.362-9.191-2.52l-19.053,10.852
				c-3.232,1.843-4.36,5.957-2.52,9.191C236.465,119.337,240.577,120.465,243.811,118.625z"/>
			<path d="M246.667,128.806l-9.526,5.428c-2.657,1.513-3.962,4.626-3.177,7.582c0.785,2.956,3.462,5.012,6.52,5.007
				c1.168,0.001,2.316-0.304,3.329-0.885l9.526-5.428c2.091-1.192,3.387-3.408,3.4-5.815c0.013-2.406-1.258-4.637-3.335-5.852
				C251.325,127.629,248.757,127.615,246.667,128.806z"/>
			<path d="M280.009,109.813l-14.289,8.138c-2.658,1.513-3.963,4.627-3.178,7.583c0.785,2.956,3.462,5.013,6.52,5.009v0
				c1.167,0.001,2.315-0.303,3.329-0.882l14.289-8.138c3.234-1.842,4.362-5.957,2.52-9.191
				C287.358,109.099,283.243,107.971,280.009,109.813z"/>
			<path d="M280.009,137.126l-42.868,24.418c-2.092,1.192-3.389,3.409-3.403,5.816c-0.014,2.407,1.258,4.639,3.336,5.855
				c2.078,1.216,4.647,1.231,6.739,0.039l42.868-24.418c3.232-1.843,4.36-5.957,2.52-9.191
				C287.357,136.412,283.243,135.284,280.009,137.126z"/>
			<path d="M303.818,123.563l-4.763,2.714c-2.657,1.513-3.962,4.626-3.177,7.582s3.462,5.012,6.52,5.007
				c1.168,0.001,2.316-0.304,3.329-0.885l4.763-2.714c3.232-1.842,4.359-5.956,2.516-9.188
				C311.163,122.847,307.05,121.721,303.818,123.563z"/>
			<path d="M485.614,163.471c-0.541-12.9-7.372-24.715-18.283-31.618L243.838,2.833c-4.283-2.733-9.52-3.534-14.424-2.204
				c-0.2,0.043-0.397,0.077-0.592,0.138c-0.046,0.016-0.097,0.016-0.142,0.034c-0.132,0.043-0.263,0.089-0.388,0.138
				c-0.971,0.382-1.89,0.886-2.735,1.499l-24.342,14.084c-0.233,0.117-0.499,0.15-0.726,0.282c-0.232,0.134-0.398,0.351-0.621,0.498
				l-0.425,0.246c-0.475,0.316-0.906,0.693-1.282,1.122c-3.637,3.543-5.594,8.466-5.383,13.539l0,198.543L30.93,324.188
				c-0.146,0.064-0.24,0.187-0.379,0.259c-0.07,0.038-0.15,0.049-0.22,0.089c-0.227,0.158-0.445,0.327-0.654,0.508
				c-0.313,0.203-0.608,0.432-0.883,0.685c-1.675,1.651-2.603,3.915-2.569,6.267v24.336c0.107,4.186,2.332,8.031,5.908,10.211
				l249.586,144.099c1.371,0.806,2.93,1.237,4.52,1.25c1.411,0.005,2.798-0.365,4.02-1.072c0.679-0.398,1.294-0.895,1.826-1.475
				l163.311-93.904c0.298-0.099,0.589-0.218,0.87-0.358l26.033-15.013c0.224-0.172,0.436-0.359,0.635-0.56
				c0.373-0.265,0.717-0.569,1.027-0.906c0.522-0.672,0.949-1.412,1.269-2.2c0.139-0.443,0.23-0.899,0.273-1.362
				c0.073-0.27,0.128-0.544,0.164-0.821L485.614,163.471z M206.252,32.208c-0.082-1.195,0.168-2.39,0.722-3.453l0.629-0.363
				c1.248,0.043,2.458,0.438,3.491,1.138l223.487,129.026c6.716,4.513,10.984,11.864,11.572,19.934v191.085L206.252,231.073V32.208z
				 M280.89,494.602L39.7,355.352v-14.599l93.513,53.993c1.669,4.083,4.589,7.531,8.342,9.849l35.132,20.283
				c2.903,1.823,6.464,2.264,9.724,1.204c0.217-0.079,0.434-0.164,0.645-0.25l93.835,54.171V494.602z M287.78,468.423
				l-98.179-56.682c-2.429-1.399-5.469-1.15-7.638,0.625l-33.671-19.441c-1.491-1.111-2.56-2.695-3.033-4.493
				c-0.461-1.732-1.592-3.209-3.145-4.105L47.92,329.939l151.32-87.358l240.178,138.667L287.78,468.423z M449.862,403.219
				c-0.189,0.086-0.394,0.087-0.577,0.192l-154.921,89.056v-12.288l161.882-93.064c0.084-0.048,0.128-0.132,0.209-0.183
				c0.571-0.365,1.083-0.814,1.518-1.333c0.162-0.188,0.313-0.386,0.452-0.591c0.387-0.556,0.688-1.169,0.891-1.815
				c0.026-0.086,0.064-0.163,0.086-0.25c0.147-0.553,0.222-1.123,0.225-1.695V178.491c-0.629-12.876-7.451-24.652-18.309-31.602
				L221.844,20.176l10.441-6.024l1.25-0.752c1.282-0.03,2.539,0.36,3.579,1.111l223.46,129c6.708,4.532,10.969,11.887,11.566,19.961
				V366.26l0.045,24.085L449.862,403.219z"/>
			<path d="M406.502,375.201L207.7,259.803c-2.12-1.238-4.747-1.219-6.849,0.049l-68.086,40.855
				c-2.044,1.227-3.287,3.443-3.27,5.827c0.018,2.384,1.294,4.581,3.355,5.778l198.803,115.401c2.123,1.229,4.745,1.209,6.849-0.053
				l68.085-40.855c2.044-1.227,3.287-3.443,3.27-5.827C409.84,378.596,408.564,376.398,406.502,375.201z M334.976,414.063
				L149.489,306.385l54.888-32.934l185.487,107.678L334.976,414.063z"/>
			<path d="M260.272,391.227l-84.395-48.987c-2.123-1.227-4.745-1.207-6.849,0.053l-28.901,17.342
				c-2.044,1.227-3.287,3.443-3.27,5.827c0.018,2.384,1.293,4.581,3.355,5.778l84.395,48.987c2.123,1.229,4.745,1.209,6.849-0.053
				l28.901-17.342c2.044-1.227,3.287-3.443,3.27-5.827C263.61,394.622,262.334,392.424,260.272,391.227z M227.93,406.576
				l-71.079-41.263l15.704-9.421l71.079,41.263L227.93,406.576z"/>
		</g>
	</g>
</g>
<g>
</g>
<g>
</g>
<g>
</g>
<g>
</g>
<g>
</g>
<g>
</g>
<g>
</g>
<g>
</g>
<g>
</g>
<g>
</g>
<g>
</g>
<g>
</g>
<g>
</g>
<g>
</g>
<g>
</g>
</svg>
