<?xml version="1.0" encoding="UTF-8" standalone="no"?>
<svg
   xmlns:dc="http://purl.org/dc/elements/1.1/"
   xmlns:cc="http://creativecommons.org/ns#"
   xmlns:rdf="http://www.w3.org/1999/02/22-rdf-syntax-ns#"
   xmlns:svg="http://www.w3.org/2000/svg"
   xmlns="http://www.w3.org/2000/svg"
   xmlns:sodipodi="http://sodipodi.sourceforge.net/DTD/sodipodi-0.dtd"
   xmlns:inkscape="http://www.inkscape.org/namespaces/inkscape"
   inkscape:version="1.0 (4035a4fb49, 2020-05-01)"
   sodipodi:docname="laptop.svg"
   xml:space="preserve"
   style="enable-background:new 0 0 511.892 511.892;"
   viewBox="0 0 511.892 511.892"
   y="0px"
   x="0px"
   id="Capa_1"
   version="1.1"><metadata
   id="metadata972"><rdf:RDF><cc:Work
       rdf:about=""><dc:format>image/svg+xml</dc:format><dc:type
         rdf:resource="http://purl.org/dc/dcmitype/StillImage" /></cc:Work></rdf:RDF></metadata><defs
   id="defs970" /><sodipodi:namedview
   inkscape:current-layer="g933"
   inkscape:window-maximized="1"
   inkscape:window-y="0"
   inkscape:window-x="0"
   inkscape:cy="242.57379"
   inkscape:cx="208.66255"
   inkscape:zoom="1.6755888"
   showgrid="false"
   id="namedview968"
   inkscape:window-height="1410"
   inkscape:window-width="3440"
   inkscape:pageshadow="2"
   inkscape:pageopacity="0"
   guidetolerance="10"
   gridtolerance="10"
   objecttolerance="10"
   borderopacity="1"
   bordercolor="#666666"
   pagecolor="#ffffff" />
<g
   id="g935">
	<g
   id="g933">
		<g
   transform="matrix(0.90341422,0,0,0.90341422,-22.297336,0.85749849)"
   id="g931">
			<path
   id="path915"
   d="m 243.811,118.625 19.053,-10.852 c 3.234,-1.842 4.362,-5.957 2.52,-9.191 -1.842,-3.234 -5.957,-4.362 -9.191,-2.52 l -19.053,10.852 c -3.232,1.843 -4.36,5.957 -2.52,9.191 1.845,3.232 5.957,4.36 9.191,2.52 z" />
			<path
   id="path917"
   d="m 246.667,128.806 -9.526,5.428 c -2.657,1.513 -3.962,4.626 -3.177,7.582 0.785,2.956 3.462,5.012 6.52,5.007 1.168,0.001 2.316,-0.304 3.329,-0.885 l 9.526,-5.428 c 2.091,-1.192 3.387,-3.408 3.4,-5.815 0.013,-2.406 -1.258,-4.637 -3.335,-5.852 -2.079,-1.214 -4.647,-1.228 -6.737,-0.037 z" />
			<path
   id="path919"
   d="m 280.009,109.813 -14.289,8.138 c -2.658,1.513 -3.963,4.627 -3.178,7.583 0.785,2.956 3.462,5.013 6.52,5.009 v 0 c 1.167,0.001 2.315,-0.303 3.329,-0.882 l 14.289,-8.138 c 3.234,-1.842 4.362,-5.957 2.52,-9.191 -1.842,-3.233 -5.957,-4.361 -9.191,-2.519 z" />
			<path
   id="path921"
   d="m 280.009,137.126 -42.868,24.418 c -2.092,1.192 -3.389,3.409 -3.403,5.816 -0.014,2.407 1.258,4.639 3.336,5.855 2.078,1.216 4.647,1.231 6.739,0.039 l 42.868,-24.418 c 3.232,-1.843 4.36,-5.957 2.52,-9.191 -1.844,-3.233 -5.958,-4.361 -9.192,-2.519 z" />
			<path
   id="path923"
   d="m 303.818,123.563 -4.763,2.714 c -2.657,1.513 -3.962,4.626 -3.177,7.582 0.785,2.956 3.462,5.012 6.52,5.007 1.168,10e-4 2.316,-0.304 3.329,-0.885 l 4.763,-2.714 c 3.232,-1.842 4.359,-5.956 2.516,-9.188 -1.843,-3.232 -5.956,-4.358 -9.188,-2.516 z" />
			<path
   id="path925"
   d="m 485.614,163.471 c -0.541,-12.9 -7.372,-24.715 -18.283,-31.618 L 243.838,2.833 c -4.283,-2.733 -9.52,-3.534 -14.424,-2.204 -0.2,0.043 -0.397,0.077 -0.592,0.138 -0.046,0.016 -0.097,0.016 -0.142,0.034 -0.132,0.043 -0.263,0.089 -0.388,0.138 -0.971,0.382 -1.89,0.886 -2.735,1.499 l -24.342,14.084 c -0.233,0.117 -0.499,0.15 -0.726,0.282 -0.232,0.134 -0.398,0.351 -0.621,0.498 l -0.425,0.246 c -0.475,0.316 -0.906,0.693 -1.282,1.122 -3.637,3.543 -5.594,8.466 -5.383,13.539 V 230.752 L 30.93,324.188 c -0.146,0.064 -0.24,0.187 -0.379,0.259 -0.07,0.038 -0.15,0.049 -0.22,0.089 -0.227,0.158 -0.445,0.327 -0.654,0.508 -0.313,0.203 -0.608,0.432 -0.883,0.685 -1.675,1.651 -2.603,3.915 -2.569,6.267 v 24.336 c 0.107,4.186 2.332,8.031 5.908,10.211 l 249.586,144.099 c 1.371,0.806 2.93,1.237 4.52,1.25 1.411,0.005 2.798,-0.365 4.02,-1.072 0.679,-0.398 1.294,-0.895 1.826,-1.475 l 163.311,-93.904 c 0.298,-0.099 0.589,-0.218 0.87,-0.358 l 26.033,-15.013 c 0.224,-0.172 0.436,-0.359 0.635,-0.56 0.373,-0.265 0.717,-0.569 1.027,-0.906 0.522,-0.672 0.949,-1.412 1.269,-2.2 0.139,-0.443 0.23,-0.899 0.273,-1.362 0.073,-0.27 0.128,-0.544 0.164,-0.821 z M 206.252,32.208 c -0.082,-1.195 0.168,-2.39 0.722,-3.453 l 0.629,-0.363 c 1.248,0.043 2.458,0.438 3.491,1.138 l 223.487,129.026 c 6.716,4.513 10.984,11.864 11.572,19.934 V 369.575 L 206.252,231.073 Z M 280.89,494.602 39.7,355.352 v -14.599 l 93.513,53.993 c 1.669,4.083 4.589,7.531 8.342,9.849 l 35.132,20.283 c 2.903,1.823 6.464,2.264 9.724,1.204 0.217,-0.079 0.434,-0.164 0.645,-0.25 l 93.835,54.171 v 14.599 z m 6.89,-26.179 -98.179,-56.682 c -2.429,-1.399 -5.469,-1.15 -7.638,0.625 l -33.671,-19.441 c -1.491,-1.111 -2.56,-2.695 -3.033,-4.493 -0.461,-1.732 -1.592,-3.209 -3.145,-4.105 L 47.92,329.939 199.24,242.581 439.418,381.248 Z m 162.082,-65.204 c -0.189,0.086 -0.394,0.087 -0.577,0.192 l -154.921,89.056 v -12.288 l 161.882,-93.064 c 0.084,-0.048 0.128,-0.132 0.209,-0.183 0.571,-0.365 1.083,-0.814 1.518,-1.333 0.162,-0.188 0.313,-0.386 0.452,-0.591 0.387,-0.556 0.688,-1.169 0.891,-1.815 0.026,-0.086 0.064,-0.163 0.086,-0.25 0.147,-0.553 0.222,-1.123 0.225,-1.695 V 178.491 c -0.629,-12.876 -7.451,-24.652 -18.309,-31.602 L 221.844,20.176 l 10.441,-6.024 1.25,-0.752 c 1.282,-0.03 2.539,0.36 3.579,1.111 l 223.46,129 c 6.708,4.532 10.969,11.887 11.566,19.961 V 366.26 l 0.045,24.085 z" />
			<path
   id="path927"
   d="M 406.502,375.201 207.7,259.803 c -2.12,-1.238 -4.747,-1.219 -6.849,0.049 l -68.086,40.855 c -2.044,1.227 -3.287,3.443 -3.27,5.827 0.018,2.384 1.294,4.581 3.355,5.778 l 198.803,115.401 c 2.123,1.229 4.745,1.209 6.849,-0.053 l 68.085,-40.855 c 2.044,-1.227 3.287,-3.443 3.27,-5.827 -0.017,-2.382 -1.293,-4.58 -3.355,-5.777 z m -71.526,38.862 -185.487,-107.678 54.888,-32.934 185.487,107.678 z" />
			<path
   id="path929"
   d="M 260.272,391.227 175.877,342.24 c -2.123,-1.227 -4.745,-1.207 -6.849,0.053 l -28.901,17.342 c -2.044,1.227 -3.287,3.443 -3.27,5.827 0.018,2.384 1.293,4.581 3.355,5.778 l 84.395,48.987 c 2.123,1.229 4.745,1.209 6.849,-0.053 l 28.901,-17.342 c 2.044,-1.227 3.287,-3.443 3.27,-5.827 -0.017,-2.383 -1.293,-4.581 -3.355,-5.778 z m -32.342,15.349 -71.079,-41.263 15.704,-9.421 71.079,41.263 z" />
		</g>
	</g>
</g>
<g
   id="g937">
</g>
<g
   id="g939">
</g>
<g
   id="g941">
</g>
<g
   id="g943">
</g>
<g
   id="g945">
</g>
<g
   id="g947">
</g>
<g
   id="g949">
</g>
<g
   id="g951">
</g>
<g
   id="g953">
</g>
<g
   id="g955">
</g>
<g
   id="g957">
</g>
<g
   id="g959">
</g>
<g
   id="g961">
</g>
<g
   id="g963">
</g>
<g
   id="g965">
</g>
<g
   transform="matrix(0.37964203,0,0,0.37964203,218.59429,123.27345)"
   fill-rule="evenodd"
   fill="none"
   stroke-width="1"
   stroke="none"
   id="root"><g
     style="fill:#f33535"
     transform="matrix(2.1088869,0,0,2.1088869,250.07824,500.25508)"
     id="shape.primary"><g
       id="g3817"><path
         style="fill-opacity:0.6"
         id="path3801"
         d="M 16.397,233.62 0.877,249.138 V 0.862 L 31.91,218.105 Z M 233.607,16.377 249.123,0.862 V 249.138 L 218.094,31.892 233.608,16.377 Z" /><path
         style="fill-opacity:0.5"
         id="path3803"
         d="M 47.422,202.592 31.908,218.107 0.877,0.864 62.945,187.07 Z M 202.583,47.415 218.096,31.89 249.123,249.136 187.063,62.937 Z" /><path
         style="fill-opacity:0.4"
         id="path3805"
         d="M 78.456,171.554 62.942,187.072 0.877,0.863 93.972,156.039 Z M 171.549,78.45 187.065,62.935 249.123,249.136 156.036,93.968 Z" /><path
         style="fill-opacity:0.03"
         id="path3807"
         d="M 233.617,16.394 218.111,31.909 0.878,0.954 249.123,0.864 Z M 16.39,233.614 31.893,218.098 249.123,249.053 0.877,249.138 16.39,233.613 Z" /><path
         style="fill-opacity:0.05"
         id="path3809"
         d="M 202.592,47.431 187.086,62.954 0.878,0.954 218.113,31.907 202.593,47.431 Z M 47.407,202.576 62.921,187.046 249.121,249.053 31.891,218.1 Z" /><path
         style="fill-opacity:0.1"
         id="path3811"
         d="M 171.573,78.477 156.069,94.001 0.878,0.954 187.088,62.952 Z M 78.432,171.521 93.938,155.999 249.122,249.053 62.919,187.046 Z" /><path
         style="fill-opacity:0.2"
         id="path3813"
         d="M 140.557,109.521 125.003,125.003 0.877,0.952 156.071,93.999 Z M 109.45,140.486 124.995,125.002 249.123,249.055 93.936,156.001 Z" /><path
         style="fill-opacity:0.3"
         id="path3815"
         d="m 125,124.998 15.515,-15.517 15.52,-15.513 92.865,154.79 0.223,0.296 -0.124,-0.131 0.124,0.214 -0.296,-0.386 -123.83,-123.744 -15.508,15.51 L 93.971,156.039 1.105,1.247 0.877,0.953 1.007,1.084 0.877,0.864 1.18,1.257 Z" /></g><g
       id="g3835"><path
         style="fill-opacity:0.6"
         id="path3819"
         d="M 16.39,125.002 H 0.877 l 124.126,-124.14 -93.1,124.14 z m 217.218,-0.007 15.515,0.008 -124.12,124.135 93.091,-124.143 z" /><path
         style="fill-opacity:0.5"
         id="path3821"
         d="M 47.422,125.002 H 31.901 L 125.003,0.862 62.945,125.002 Z m 155.161,0 15.513,-0.007 -93.094,124.143 62.06,-124.136 z" /><path
         style="fill-opacity:0.4"
         id="path3823"
         d="M 78.456,125.002 H 62.942 L 125.003,0.862 93.972,125.002 Z m 93.093,0 h 15.516 l -62.063,124.136 31.034,-124.143 z" /><path
         style="fill-opacity:0.03"
         id="path3825"
         d="M 233.608,125.012 H 218.094 L 124.961,0.91 249.123,125.002 Z M 16.39,124.995 h 15.513 l 93.14,124.1 L 0.877,125.003 Z" /><path
         style="fill-opacity:0.05"
         id="path3827"
         d="M 202.574,125.012 187.063,125.029 124.961,0.91 218.097,125.012 Z m -155.152,-0.026 15.523,-0.007 62.097,124.116 -93.141,-124.1 15.52,-0.01 z" /><path
         style="fill-opacity:0.1"
         id="path3829"
         d="M 171.549,125.029 156.036,125.036 124.963,0.91 187.065,125.029 Z m -93.093,-0.05 15.516,-0.017 31.07,124.133 -62.1,-124.116 z" /><path
         style="fill-opacity:0.2"
         id="path3831"
         d="M 140.515,125.036 125.001,125.002 124.963,0.91 156.038,125.036 Z m -31.032,-0.074 15.513,0.034 0.046,124.1 L 93.97,124.962 Z" /><path
         style="fill-opacity:0.3"
         id="path3833"
         d="m 125.002,124.996 h 15.512 15.523 l -30.961,123.845 -0.034,0.252 v -0.128 l -0.039,0.172 0.039,-0.347 -0.046,-123.786 H 109.483 93.97 L 124.929,1.166 124.963,0.912 v 0.12 l 0.039,-0.169 -0.04,0.345 z" /></g></g><g
     transform="translate(40,354)"
     id="Group"><rect
       height="46"
       width="420"
       y="0"
       x="0"
       id="Rectangle-10" /></g></g></svg>
