<?xml version="1.0" encoding="iso-8859-1"?>
<!-- Generator: Adobe Illustrator 19.0.0, SVG Export Plug-In . SVG Version: 6.00 Build 0)  -->
<svg version="1.1" id="Layer_1" xmlns="http://www.w3.org/2000/svg" xmlns:xlink="http://www.w3.org/1999/xlink" x="0px" y="0px"
	 viewBox="0 0 503.607 503.607" style="enable-background:new 0 0 503.607 503.607;" xml:space="preserve">
<g>
	<g>
		<g>
			<path d="M293.77,318.952v-25.18c0-4.636-3.758-8.393-8.393-8.393v-83.922c0.001-0.26-0.015-0.521-0.039-0.783
				c-0.005-0.055-0.01-0.11-0.016-0.165c-0.027-0.242-0.061-0.482-0.11-0.724c-0.015-0.072-0.035-0.142-0.052-0.214
				c-0.074-0.32-0.166-0.637-0.281-0.954c-0.073-0.203-0.15-0.403-0.237-0.598c-0.05-0.111-0.103-0.22-0.159-0.33
				c-0.146-0.29-0.304-0.573-0.481-0.843c-0.013-0.02-0.022-0.041-0.035-0.061c-8.284-12.423-8.284-28.624,0-41.047
				c0.064-0.096,0.108-0.197,0.168-0.294c0.115-0.189,0.228-0.378,0.328-0.575c0.098-0.19,0.181-0.382,0.262-0.575
				c0.057-0.136,0.113-0.272,0.163-0.411c0.083-0.231,0.154-0.463,0.216-0.697c0.031-0.119,0.06-0.238,0.086-0.358
				c0.051-0.235,0.092-0.469,0.121-0.705c0.019-0.147,0.032-0.295,0.043-0.443c0.014-0.2,0.023-0.399,0.023-0.598
				c0.001-0.199-0.009-0.397-0.023-0.597c-0.011-0.149-0.024-0.296-0.043-0.444c-0.029-0.236-0.071-0.47-0.121-0.705
				c-0.026-0.12-0.055-0.239-0.086-0.358c-0.061-0.234-0.132-0.465-0.216-0.697c-0.05-0.139-0.106-0.275-0.163-0.412
				c-0.081-0.193-0.165-0.385-0.262-0.575c-0.1-0.197-0.213-0.386-0.328-0.575c-0.06-0.097-0.104-0.198-0.168-0.294l-16.787-25.18
				c-1.557-2.335-4.177-3.738-6.984-3.738H243.41c-2.806,0-5.427,1.403-6.984,3.738l-16.787,25.18
				c-0.064,0.096-0.108,0.197-0.168,0.295c-0.115,0.189-0.228,0.377-0.328,0.574c-0.098,0.191-0.181,0.383-0.263,0.576
				c-0.057,0.136-0.113,0.271-0.163,0.41c-0.083,0.232-0.154,0.463-0.216,0.697c-0.031,0.119-0.06,0.238-0.086,0.359
				c-0.051,0.235-0.092,0.469-0.121,0.705c-0.019,0.147-0.032,0.294-0.043,0.443c-0.014,0.2-0.023,0.399-0.023,0.598
				c-0.001,0.199,0.009,0.397,0.023,0.597c0.011,0.149,0.024,0.296,0.043,0.443c0.029,0.236,0.071,0.47,0.121,0.705
				c0.026,0.12,0.055,0.239,0.086,0.358c0.061,0.234,0.132,0.465,0.216,0.697c0.05,0.139,0.106,0.275,0.163,0.411
				c0.081,0.193,0.165,0.385,0.262,0.575c0.1,0.197,0.213,0.386,0.328,0.575c0.06,0.097,0.104,0.198,0.168,0.294
				c8.284,12.423,8.284,28.625,0,41.047c-0.013,0.02-0.022,0.041-0.035,0.061c-0.177,0.27-0.335,0.553-0.481,0.843
				c-0.056,0.11-0.109,0.219-0.159,0.33c-0.087,0.195-0.164,0.395-0.237,0.598c-0.115,0.316-0.207,0.634-0.281,0.954
				c-0.016,0.072-0.037,0.142-0.052,0.214c-0.049,0.241-0.083,0.482-0.11,0.724c-0.006,0.055-0.011,0.11-0.016,0.165
				c-0.024,0.262-0.04,0.522-0.039,0.783v83.922c-4.636,0-8.393,3.758-8.393,8.393v25.18c-4.636,0-8.393,3.758-8.393,8.393v117.508
				c0,4.636,3.758,8.393,8.393,8.393h8.393v33.572c0,9.276,7.517,16.787,16.787,16.787h33.574c9.27,0,16.787-7.511,16.787-16.787
				v-33.572h8.393c4.636,0,8.393-3.758,8.393-8.393V327.346C302.164,322.71,298.406,318.952,293.77,318.952z M263.65,193.049
				h-23.694c3.578-10.895,3.578-22.679,0-33.574h23.694C260.072,170.371,260.072,182.154,263.65,193.049z M235.016,209.838h33.574
				v16.785h-33.574V209.838z M247.902,134.295h7.803l5.596,8.393h-18.994L247.902,134.295z M235.016,243.41h33.574v41.969h-33.574
				V243.41z M226.623,302.166h50.361v16.787h-50.361V302.166z M268.59,486.82h-33.574v-33.572h33.574V486.82z M285.377,436.461
				h-8.36c-0.011,0-0.022-0.002-0.034-0.002h-50.361c-0.011,0-0.022,0.002-0.034,0.002h-8.36V335.739h67.148V436.461z"/>
			<path d="M251.803,100.721c27.812,0,50.361-22.545,50.361-50.361S279.616,0,251.803,0s-50.361,22.545-50.361,50.361
				S223.991,100.721,251.803,100.721z M251.803,16.787c18.542,0,33.574,15.03,33.574,33.574s-15.032,33.574-33.574,33.574
				s-33.574-15.03-33.574-33.574S233.261,16.787,251.803,16.787z"/>
			<path d="M251.803,67.148c9.266,0,16.787-7.521,16.787-16.787s-7.521-16.787-16.787-16.787c-9.266,0-16.787,7.521-16.787,16.787
				S242.537,67.148,251.803,67.148z"/>
		</g>
	</g>
</g>
<g>
</g>
<g>
</g>
<g>
</g>
<g>
</g>
<g>
</g>
<g>
</g>
<g>
</g>
<g>
</g>
<g>
</g>
<g>
</g>
<g>
</g>
<g>
</g>
<g>
</g>
<g>
</g>
<g>
</g>
</svg>
