<?xml version="1.0" encoding="UTF-8" standalone="no"?>
<svg
   xmlns:dc="http://purl.org/dc/elements/1.1/"
   xmlns:cc="http://creativecommons.org/ns#"
   xmlns:rdf="http://www.w3.org/1999/02/22-rdf-syntax-ns#"
   xmlns:svg="http://www.w3.org/2000/svg"
   xmlns="http://www.w3.org/2000/svg"
   xmlns:xlink="http://www.w3.org/1999/xlink"
   xmlns:sodipodi="http://sodipodi.sourceforge.net/DTD/sodipodi-0.dtd"
   xmlns:inkscape="http://www.inkscape.org/namespaces/inkscape"
   inkscape:version="1.0 (4035a4fb49, 2020-05-01)"
   sodipodi:docname="macos.svg"
   xml:space="preserve"
   style="enable-background:new 0 0 407 407;"
   viewBox="0 0 407 407"
   y="0px"
   x="0px"
   id="Capa_1"
   version="1.1"><sodipodi:namedview
   inkscape:current-layer="Capa_1"
   inkscape:window-maximized="0"
   inkscape:window-y="0"
   inkscape:window-x="0"
   inkscape:cy="203.5"
   inkscape:cx="104.98016"
   inkscape:zoom="2.4766585"
   showgrid="false"
   id="namedview3409"
   inkscape:window-height="1410"
   inkscape:window-width="3440"
   inkscape:pageshadow="2"
   inkscape:pageopacity="0"
   guidetolerance="10"
   gridtolerance="10"
   objecttolerance="10"
   borderopacity="1"
   bordercolor="#666666"
   pagecolor="#ffffff" /><metadata
   id="metadata36"><rdf:RDF><cc:Work
       rdf:about=""><dc:format>image/svg+xml</dc:format><dc:type
         rdf:resource="http://purl.org/dc/dcmitype/StillImage" /><dc:title /></cc:Work></rdf:RDF></metadata><defs
   id="defs34"><linearGradient
   y2="402.0255"
   x2="203.7169"
   y1="7.7039"
   x1="203.7169"
   gradientTransform="matrix(1,0,0,-1,0,407.2074)"
   gradientUnits="userSpaceOnUse"
   id="linearGradient46"
   xlink:href="#SVGID_1_" /><linearGradient
   y2="402.0255"
   x2="203.7169"
   y1="7.7039"
   x1="203.7169"
   gradientTransform="matrix(1,0,0,-1,0,407.2074)"
   gradientUnits="userSpaceOnUse"
   id="linearGradient48"
   xlink:href="#SVGID_1_" />


<linearGradient
   id="linearGradient120"
   gradientUnits="userSpaceOnUse"
   x1="203.7169"
   y1="7.7038999"
   x2="203.7169"
   y2="402.02551"
   gradientTransform="matrix(1,0,0,-1,0,407.2074)"><stop
     offset="0"
     style="stop-color:#F2F2F2"
     id="stop6-9" /><stop
     offset="0.5963"
     style="stop-color:#F7F7F7"
     id="stop8-1" /><stop
     offset="1"
     style="stop-color:#FEFEFE"
     id="stop10-7" /></linearGradient><filter
   height="1.0263967"
   y="-0.013198327"
   width="1.0264033"
   x="-0.013201674"
   id="filter1002"
   style="color-interpolation-filters:sRGB"><feGaussianBlur
     id="feGaussianBlur1004"
     stdDeviation="2.168925" /></filter></defs>
<style
   id="style2"
   type="text/css">
	.st0{fill:url(#SVGID_1_);}
	.st1{fill:#515151;}
</style>
<g
   id="g15">



			<linearGradient
   id="SVGID_1_"
   gradientUnits="userSpaceOnUse"
   x1="203.7169"
   y1="7.7038999"
   x2="203.7169"
   y2="402.02551"
   gradientTransform="matrix(1,0,0,-1,0,407.2074)">
			<stop
   offset="0"
   style="stop-color:#F2F2F2"
   id="stop6" />
			<stop
   offset="0.5963"
   style="stop-color:#F7F7F7"
   id="stop8" />
			<stop
   offset="1"
   style="stop-color:#FEFEFE"
   id="stop10" />
		</linearGradient>
		
	</g><g
   style="fill:#ffffff"
   id="g27">
		
		
		
		
		<path
   d="m 252.1,113.5 c 1,-1.2 2.1,-2.2 3.5,-2.9 1.4,-0.7 2.9,-1 4.6,-1 1.4,0 2.7,0.2 3.8,0.6 1.1,0.4 2.1,0.9 3,1.6 0.8,0.7 1.5,1.5 2,2.5 0.5,1 0.9,2 1.1,3.1 h 7.9 c -0.2,-2 -0.7,-3.9 -1.6,-5.7 -0.9,-1.8 -2.1,-3.3 -3.6,-4.7 -1.5,-1.3 -3.4,-2.4 -5.5,-3.2 -2.1,-0.8 -4.5,-1.2 -7.2,-1.2 -2.9,0 -5.6,0.5 -8,1.5 -2.4,1 -4.4,2.4 -6.1,4.3 -1.7,1.9 -3,4.1 -3.9,6.7 -0.9,2.6 -1.4,5.5 -1.4,8.8 0,3.3 0.5,6.3 1.4,8.9 0.9,2.6 2.3,4.9 4,6.7 1.7,1.8 3.8,3.2 6.2,4.2 2.4,1 5.1,1.5 8,1.5 2.5,0 4.8,-0.4 6.9,-1 2.1,-0.6 3.9,-1.7 5.5,-2.9 1.5,-1.3 2.8,-2.8 3.8,-4.6 1,-1.8 1.6,-3.8 1.8,-5.9 h -7.9 c -0.5,2.5 -1.6,4.3 -3.3,5.6 -1.7,1.3 -3.9,1.9 -6.6,1.9 -1.7,0 -3.2,-0.3 -4.6,-1 -1.4,-0.6 -2.6,-1.6 -3.5,-2.8 -1,-1.2 -1.7,-2.7 -2.3,-4.5 -0.5,-1.8 -0.8,-3.8 -0.8,-6 0,-2.2 0.3,-4.1 0.8,-5.9 0.3,-1.9 1,-3.4 2,-4.6 z m -104.7,57.4 c -36.3,0 -59.1,25.3 -59.1,65.6 0,40.3 22.8,65.6 59.1,65.6 36.3,0 59.1,-25.3 59.1,-65.6 -0.1,-40.3 -22.8,-65.6 -59.1,-65.6 z m 0,115 c -24.9,0 -40.5,-19.1 -40.5,-49.4 0,-30.4 15.6,-49.5 40.5,-49.5 24.8,0 40.5,19.1 40.5,49.5 -0.1,30.3 -15.7,49.4 -40.5,49.4 z m 40.3,-141.2 v -28.3 c 0,-2.1 -0.3,-4 -1,-5.6 -0.7,-1.6 -1.5,-3.1 -2.7,-4.3 -1.2,-1.2 -2.6,-2.1 -4.3,-2.8 -1.7,-0.7 -3.5,-1 -5.6,-1 -1.5,0 -2.9,0.2 -4.2,0.6 -1.3,0.4 -2.6,0.9 -3.7,1.6 -1.1,0.7 -2.1,1.6 -3,2.5 -0.9,0.9 -1.6,2.1 -2.1,3.4 h -0.2 c -0.8,-2.6 -2.3,-4.6 -4.3,-6 -2,-1.4 -4.5,-2.1 -7.4,-2.1 -1.3,0 -2.6,0.2 -3.9,0.5 -1.2,0.3 -2.3,0.8 -3.4,1.5 -1,0.7 -1.9,1.4 -2.7,2.4 -0.8,0.9 -1.4,2 -1.9,3.1 h -0.2 v -7 h -7.9 v 41.6 h 7.8 v -25.5 c 0,-1.3 0.7,-2.6 1.1,-3.7 0.4,-1.1 1,-2.1 1.8,-3 0.8,-0.8 1.7,-1.5 2.8,-2 1.1,-0.5 2.3,-0.7 3.5,-0.7 1.2,0 2.3,0.2 3.3,0.6 1,0.4 1.8,0.9 2.5,1.6 0.7,0.7 1.2,1.5 1.6,2.5 0.4,1 0.6,2.1 0.6,3.2 v 27 h 8.2 V 119 c 0,-1.3 0.2,-2.6 0.7,-3.7 0.4,-1.1 1,-2.1 1.8,-2.9 0.8,-0.8 1.7,-1.4 2.7,-1.9 1.1,-0.4 2.2,-0.7 3.5,-0.7 2.6,0 4.6,0.8 6,2.2 1.4,1.5 2.1,3.6 2.1,6.3 v 26.3 z m 90.8,84 -13.7,-3.4 c -16.7,-4.2 -23.6,-9.7 -23.6,-18.9 0,-11.7 10.9,-19.8 26.7,-19.8 15.8,0 26.5,8 27.7,21 h 17.9 c -0.7,-21.6 -19,-36.7 -45.2,-36.7 -26.8,0 -45.7,15 -45.7,36.5 0,17.5 10.6,28.2 34.1,34 l 16.3,4 c 16.7,4.2 23.9,10.4 23.9,20.6 0,11.8 -11.9,20.4 -28.4,20.4 -17.2,0 -29.8,-8.6 -31.2,-21.7 h -18 c 1.3,22.8 20.2,37.3 47.9,37.3 29.7,0 48.4,-14.7 48.4,-38.3 -0.3,-18.4 -11,-28.7 -37.1,-35 z m -54.8,-90.9 h 0.2 v 6.9 h 7.9 v -28.5 c 0,-2.1 -0.4,-3.9 -1.2,-5.6 -0.8,-1.7 -1.9,-3.1 -3.4,-4.3 -1.5,-1.2 -3.2,-2.1 -5.3,-2.7 -2.1,-0.6 -4.3,-1 -6.9,-1 -2.3,0 -4.5,0.3 -6.5,1 -2,0.6 -3.7,1.5 -5.2,2.7 -1.5,1.2 -2.6,2.5 -3.5,4.1 -0.9,1.6 -1.3,3.3 -1.4,5.1 h 7.8 c 0.2,-0.9 0.5,-1.7 1,-2.4 0.5,-0.7 1.1,-1.4 1.8,-1.9 0.7,-0.5 1.6,-0.9 2.6,-1.2 1,-0.3 2,-0.4 3.1,-0.4 2.8,0 4.9,0.6 6.5,1.9 1.5,1.2 2.3,3.1 2.3,5.5 v 3.2 l -11.2,0.6 c -5.2,0.3 -9.1,1.5 -11.8,3.6 -2.7,2.1 -4.1,4.9 -4.1,8.6 0,1.9 0.3,3.6 1,5.1 0.7,1.5 1.7,2.8 2.9,3.9 1.2,1.1 2.7,1.9 4.4,2.5 1.7,0.6 3.6,0.9 5.7,0.9 1.4,0 2.8,-0.2 4.1,-0.5 1.3,-0.3 2.6,-0.8 3.7,-1.5 1.1,-0.6 2.1,-1.4 3.1,-2.3 1,-1.2 1.8,-2.2 2.4,-3.3 z m -3.2,-2 c -1,0.8 -2.1,1.5 -3.4,2 -1.3,0.5 -2.8,0.7 -4.3,0.7 -2.4,0 -4.3,-0.5 -5.7,-1.6 -1.4,-1.1 -2.1,-2.5 -2.1,-4.3 0,-1.8 0.7,-3.3 2.2,-4.3 1.4,-1 3.6,-1.6 6.5,-1.8 l 10.1,-0.7 v 3.2 c 0,1.4 -0.3,2.6 -0.8,3.8 -0.8,1.2 -1.5,2.2 -2.5,3 z m 186.28571,67.83087 A 203.31424,203.31424 0 0 1 203.47147,406.94511 203.31424,203.31424 0 0 1 0.15722656,203.63087 203.31424,203.31424 0 0 1 203.47147,0.31663513 203.31424,203.31424 0 0 1 406.78571,203.63087 Z"
   style="fill:#ffffff"
   id="path25" />
	</g>
</svg>
