<?xml version="1.0" encoding="iso-8859-1"?>
<!-- Generator: Adobe Illustrator 19.0.0, SVG Export Plug-In . SVG Version: 6.00 Build 0)  -->
<svg version="1.1" id="Capa_1" xmlns="http://www.w3.org/2000/svg" xmlns:xlink="http://www.w3.org/1999/xlink" x="0px" y="0px"
	 viewBox="0 0 512 512" style="enable-background:new 0 0 512 512;" xml:space="preserve">
<g>
	<circle style="fill:#A4C2F7;" cx="269.964" cy="232.727" r="65.164"/>
	<ellipse style="fill:#E3E7F2;" cx="256" cy="232.727" rx="51.2" ry="65.164"/>
	<path style="fill:#FFFFFF;" d="M269.964,297.891c2.615-0.014,5.226-0.186,7.82-0.514c-25.374-3.868-45.056-31.314-45.056-64.65
		s19.682-60.782,45.056-64.65c-24.038-2.914-47.71,7.745-61.46,27.677c-13.751,19.931-15.312,45.845-4.053,67.283
		S245.749,297.898,269.964,297.891L269.964,297.891z"/>
	<g>
		<circle style="fill:#A4C2F7;" cx="456.145" cy="55.855" r="46.545"/>
		<circle style="fill:#A4C2F7;" cx="269.964" cy="456.145" r="46.545"/>
	</g>
	<g>
		<ellipse style="fill:#E3E7F2;" cx="442.182" cy="55.855" rx="32.582" ry="46.545"/>
		<ellipse style="fill:#E3E7F2;" cx="256" cy="456.145" rx="32.582" ry="46.545"/>
	</g>
	<circle style="fill:#A4C2F7;" cx="55.855" cy="437.527" r="46.545"/>
	<g>
		<circle style="fill:#E3E7F2;" cx="121.018" cy="83.782" r="27.927"/>
		<ellipse style="fill:#E3E7F2;" cx="41.891" cy="437.527" rx="32.582" ry="46.545"/>
	</g>
	<g>
		<path style="fill:#FFFFFF;" d="M55.855,484.073c2.757-0.032,5.506-0.309,8.214-0.827c-15.241-3.893-26.832-22.825-26.832-45.718
			s11.59-41.825,26.832-45.718c-17.331-3.127-34.942,3.805-45.492,17.906c-10.55,14.102-12.228,32.953-4.335,48.697
			S38.243,484.089,55.855,484.073L55.855,484.073z"/>
		<path style="fill:#FFFFFF;" d="M271.059,502.691c2.757-0.032,5.506-0.309,8.214-0.827c-15.241-3.893-26.832-22.825-26.832-45.718
			s11.59-41.825,26.832-45.718c-17.331-3.127-34.942,3.805-45.492,17.906c-10.55,14.102-12.228,32.953-4.335,48.697
			S253.448,502.708,271.059,502.691L271.059,502.691z"/>
		<path style="fill:#FFFFFF;" d="M457.241,102.4c2.757-0.032,5.506-0.309,8.214-0.827c-15.242-3.893-26.832-22.825-26.832-45.718
			s11.59-41.825,26.832-45.718c-17.331-3.127-34.942,3.805-45.492,17.906c-10.55,14.102-12.228,32.953-4.335,48.697
			C423.52,92.483,439.63,102.417,457.241,102.4L457.241,102.4z"/>
	</g>
	<circle style="fill:#E3E7F2;" cx="418.909" cy="381.673" r="27.927"/>
	<g>
		<path style="fill:#0060dd;" d="M269.964,307.2c-41.13,0-74.473-33.343-74.473-74.473s33.343-74.473,74.473-74.473
			s74.473,33.343,74.473,74.473C344.389,273.838,311.074,307.153,269.964,307.2L269.964,307.2z M269.964,176.873
			c-30.848,0-55.855,25.007-55.855,55.855s25.007,55.855,55.855,55.855s55.855-25.007,55.855-55.855
			C325.784,201.894,300.797,176.906,269.964,176.873z"/>
		<path style="fill:#0060dd;" d="M456.145,111.709c-30.848,0-55.855-25.007-55.855-55.855S425.298,0,456.145,0
			S512,25.007,512,55.855C511.966,86.688,486.979,111.675,456.145,111.709L456.145,111.709z M456.145,18.618
			c-20.565,0-37.236,16.671-37.236,37.236s16.671,37.236,37.236,37.236s37.236-16.671,37.236-37.236
			C493.36,35.299,476.701,18.64,456.145,18.618z"/>
		<path style="fill:#0060dd;" d="M269.964,512c-30.848,0-55.855-25.007-55.855-55.855s25.007-55.855,55.855-55.855
			s55.855,25.007,55.855,55.855C325.784,486.979,300.797,511.966,269.964,512L269.964,512z M269.964,418.909
			c-20.565,0-37.236,16.671-37.236,37.236s16.671,37.236,37.236,37.236s37.236-16.671,37.236-37.236
			C307.178,435.589,290.52,418.931,269.964,418.909z"/>
		<path style="fill:#0060dd;" d="M55.855,493.382C25.007,493.382,0,468.375,0,437.527s25.007-55.855,55.855-55.855
			s55.855,25.007,55.855,55.855C111.675,468.361,86.688,493.348,55.855,493.382L55.855,493.382z M55.855,400.291
			c-20.565,0-37.236,16.671-37.236,37.236s16.671,37.236,37.236,37.236s37.236-16.671,37.236-37.236
			C93.069,416.971,76.411,400.313,55.855,400.291L55.855,400.291z"/>
		<path style="fill:#0060dd;" d="M121.018,121.018c-20.565,0-37.236-16.671-37.236-37.236s16.671-37.236,37.236-37.236
			s37.236,16.671,37.236,37.236C158.233,104.338,141.574,120.996,121.018,121.018z M121.018,65.164
			c-10.283,0-18.618,8.336-18.618,18.618s8.336,18.618,18.618,18.618s18.618-8.336,18.618-18.618
			C139.625,73.504,131.296,65.175,121.018,65.164z"/>
		<path style="fill:#0060dd;" d="M418.909,418.909c-20.565,0-37.236-16.671-37.236-37.236c0-20.565,16.671-37.236,37.236-37.236
			s37.236,16.671,37.236,37.236C456.124,402.229,439.465,418.887,418.909,418.909L418.909,418.909z M418.909,363.055
			c-10.283,0-18.618,8.336-18.618,18.618c0,10.283,8.336,18.618,18.618,18.618s18.618-8.336,18.618-18.618
			C437.516,371.395,429.187,363.066,418.909,363.055L418.909,363.055z"/>
		<path style="fill:#0060dd;" d="M269.964,418.909c-2.469,0.001-4.837-0.98-6.583-2.726c-1.746-1.746-2.727-4.114-2.726-6.583
			V297.891c0-5.141,4.168-9.309,9.309-9.309s9.309,4.168,9.309,9.309V409.6c0.001,2.469-0.98,4.837-2.726,6.583
			C274.801,417.929,272.433,418.91,269.964,418.909L269.964,418.909z"/>
		<path style="fill:#0060dd;" d="M316.509,195.491c-3.765-0.001-7.158-2.269-8.599-5.747c-1.441-3.478-0.644-7.481,2.017-10.144
			l102.4-102.4c2.344-2.387,5.789-3.332,9.023-2.476c3.234,0.856,5.76,3.382,6.616,6.616c0.856,3.234-0.089,6.679-2.476,9.023
			l-102.4,102.4C321.347,194.512,318.978,195.494,316.509,195.491L316.509,195.491z"/>
		<path style="fill:#0060dd;" d="M93.091,418.909c-3.765-0.001-7.158-2.269-8.599-5.747c-1.441-3.478-0.644-7.481,2.017-10.144
			l130.327-130.327c3.644-3.579,9.492-3.552,13.104,0.059c3.612,3.612,3.638,9.459,0.059,13.104L99.672,416.182
			C97.929,417.93,95.56,418.912,93.091,418.909L93.091,418.909z"/>
		<path style="fill:#0060dd;" d="M223.418,195.491c-2.469,0.003-4.838-0.979-6.582-2.728l-83.782-83.782
			c-3.579-3.644-3.552-9.492,0.059-13.104c3.612-3.612,9.459-3.638,13.104-0.059L230,179.6c2.662,2.662,3.458,6.666,2.017,10.144
			C230.576,193.222,227.183,195.49,223.418,195.491z"/>
		<path style="fill:#0060dd;" d="M400.291,372.364c-2.469,0.003-4.838-0.979-6.582-2.728l-83.782-83.782
			c-3.579-3.644-3.552-9.492,0.059-13.104c3.612-3.612,9.459-3.638,13.104-0.059l83.782,83.782
			c2.662,2.662,3.458,6.666,2.017,10.144C407.449,370.095,404.055,372.363,400.291,372.364z"/>
	</g>
</g>
<g>
</g>
<g>
</g>
<g>
</g>
<g>
</g>
<g>
</g>
<g>
</g>
<g>
</g>
<g>
</g>
<g>
</g>
<g>
</g>
<g>
</g>
<g>
</g>
<g>
</g>
<g>
</g>
<g>
</g>
</svg>
