<?xml version="1.0" encoding="UTF-8" standalone="no"?>
<svg
   xmlns:dc="http://purl.org/dc/elements/1.1/"
   xmlns:cc="http://creativecommons.org/ns#"
   xmlns:rdf="http://www.w3.org/1999/02/22-rdf-syntax-ns#"
   xmlns:svg="http://www.w3.org/2000/svg"
   xmlns="http://www.w3.org/2000/svg"
   xmlns:sodipodi="http://sodipodi.sourceforge.net/DTD/sodipodi-0.dtd"
   xmlns:inkscape="http://www.inkscape.org/namespaces/inkscape"
   inkscape:version="1.0 (4035a4fb49, 2020-05-01)"
   sodipodi:docname="raspberry.svg"
   id="svg1273"
   xml:space="preserve"
   width="512px"
   viewBox="0 0 512 512"
   version="1.1"
   style="enable-background:new 0 0 512 512;"
   height="512px"><metadata
   id="metadata1279"><rdf:RDF><cc:Work
       rdf:about=""><dc:format>image/svg+xml</dc:format><dc:type
         rdf:resource="http://purl.org/dc/dcmitype/StillImage" /></cc:Work></rdf:RDF></metadata><defs
   id="defs1277" /><sodipodi:namedview
   inkscape:current-layer="g1269"
   inkscape:window-maximized="0"
   inkscape:window-y="0"
   inkscape:window-x="0"
   inkscape:cy="256"
   inkscape:cx="149.07937"
   inkscape:zoom="1.96875"
   showgrid="false"
   id="namedview1275"
   inkscape:window-height="1440"
   inkscape:window-width="3440"
   inkscape:pageshadow="2"
   inkscape:pageopacity="0"
   guidetolerance="10"
   gridtolerance="10"
   objecttolerance="10"
   borderopacity="1"
   bordercolor="#666666"
   pagecolor="#ffffff" />
  <g
   id="_x32_72-raspberry-pi">
    <g
   id="g1269">
      
      <path
   id="path1243"
   style="fill:#ffffff"
   d="M387.413,227.77c-1.348,16.796-88.83-58.473-73.74-60.987    C354.721,160.047,388.761,184.027,387.413,227.77z" />
      <path
   id="path1245"
   style="fill:#ffffff"
   d="M348.791,311.392c-22.006,14.192-53.711,5.03-70.776-20.478    c-17.065-25.509-13.113-57.665,8.893-71.856c22.005-14.191,53.711-5.029,70.777,20.479    C374.749,265.047,370.796,297.2,348.791,311.392L348.791,311.392z" />
      <path
   id="path1247"
   style="fill:#ffffff"
   d="M287.805,52.444c0.719,3.773,1.616,6.108,2.605,6.826c4.85-5.209,8.802-10.509,15.089-15.539    c0,2.965-1.526,6.108,2.245,8.443c3.323-4.491,7.904-8.532,13.922-11.946c-2.873,5.03-0.539,6.557,1.077,8.623    c4.582-3.952,8.983-7.903,17.426-11.047c-2.336,2.784-5.568,5.568-2.155,8.802c4.761-2.963,9.521-5.927,20.749-7.995    c-2.516,2.785-7.815,5.659-4.583,8.444c5.931-2.246,12.574-3.952,19.852-4.851c-3.504,2.875-6.378,5.659-3.504,7.905    c6.377-1.976,15.181-4.582,23.713-2.336l-5.39,5.479c-0.628,0.718,12.664,0.539,21.466,0.718    c-3.233,4.491-6.467,8.713-8.354,16.347c0.899,0.899,5.211,0.36,9.342,0c-4.222,8.893-11.497,11.048-13.203,14.909    c2.604,1.977,6.107,1.438,10.06,0.09c-3.054,6.198-9.341,10.509-14.371,15.54c1.258,0.897,3.502,1.437,8.713,0.808    c-4.671,4.94-10.239,9.431-16.886,13.472c1.167,1.348,5.209,1.348,8.981,1.438c-6.018,5.838-13.742,8.893-21.017,12.754    c3.592,2.424,6.196,1.886,8.981,1.886c-5.119,4.222-13.833,6.377-21.916,8.982c1.526,2.425,3.056,3.053,6.378,3.682    c-8.534,4.761-20.839,2.605-24.251,5.03c0.809,2.424,3.233,3.952,6.017,5.209c-13.831,0.809-51.466-0.539-58.741-29.011    c14.102-15.54,39.88-33.682,84.16-56.227c-34.49,11.497-65.568,26.945-91.614,48.053    C251.787,102.653,272.895,66.726,287.805,52.444L287.805,52.444z" />
      <path
   id="path1249"
   style="fill:#ffffff"
   d="M256.907,155.375c21.735-0.269,48.592,15.989,48.502,31.168    c-0.09,13.472-18.862,24.34-48.322,24.16c-28.832-0.359-48.233-13.652-48.143-26.766    C208.944,173.249,232.477,154.748,256.907,155.375L256.907,155.375z" />
      <path
   id="path1251"
   style="fill:#ffffff"
   d="M146.43,143.879c3.323-0.629,4.851-1.348,6.377-3.682c-8.084-2.515-16.796-4.761-21.916-8.982    c2.784,0,5.389,0.629,8.982-1.886c-7.275-3.861-15-6.916-21.018-12.754c3.772-0.09,7.814,0,8.981-1.438    c-6.646-4.041-12.215-8.532-16.885-13.472c5.209,0.629,7.454,0.09,8.711-0.808c-5.03-5.031-11.406-9.342-14.37-15.54    c3.861,1.348,7.455,1.796,10.059-0.09c-1.707-3.771-8.982-6.017-13.203-14.909c4.131,0.36,8.443,0.899,9.341,0    c-1.886-7.634-5.21-11.945-8.354-16.347c8.803-0.089,22.096,0,21.466-0.718l-5.389-5.479c8.533-2.246,17.335,0.36,23.712,2.336    c2.875-2.246-0.09-5.03-3.503-7.905c7.275,0.988,13.832,2.605,19.85,4.851c3.143-2.785-2.066-5.659-4.581-8.444    c11.228,2.067,15.987,5.031,20.749,7.995c3.413-3.233,0.179-6.018-2.156-8.802c8.443,3.054,12.845,7.096,17.426,11.047    c1.527-2.066,3.952-3.593,1.077-8.623c6.019,3.414,10.599,7.455,13.922,11.946c3.682-2.334,2.246-5.568,2.246-8.443    c6.287,5.03,10.239,10.33,15.089,15.539c0.988-0.718,1.796-3.053,2.605-6.826c14.91,14.282,36.015,50.209,5.389,64.49    c-26.047-21.107-57.125-36.556-91.615-48.053c44.28,22.455,70.058,40.687,84.16,56.227c-7.186,28.562-44.909,29.82-58.741,29.011    c2.784-1.257,5.209-2.874,6.018-5.209C167.268,146.394,155.053,148.55,146.43,143.879L146.43,143.879z" />
      <path
   id="path1253"
   style="fill:#ffffff"
   d="M200.411,165.526c15.089,2.514-72.394,77.693-73.741,60.986    C125.322,182.771,159.455,158.699,200.411,165.526z" />
      <path
   id="path1255"
   style="fill:#ffffff"
   d="M107.539,333.307c-21.286-16.885-28.113-66.196,11.317-88.291    C142.658,238.729,126.939,341.84,107.539,333.307z" />
      <path
   id="path1257"
   style="fill:#ffffff"
   d="M189.274,421.51c-11.947,7.095-41.137,4.221-61.796-25.061    c-13.922-24.608-12.125-49.58-2.335-56.944c14.641-8.804,37.274,3.054,54.699,22.993    C195.023,380.462,201.938,412.168,189.274,421.51z" />
      <path
   id="path1259"
   style="fill:#ffffff"
   d="m 165.562,313.78435 c -22.005,-14.191 -25.958,-46.347 -8.893,-71.855 17.066,-25.508 48.772,-34.67 70.778,-20.478 22.005,14.19 25.957,46.345 8.892,71.856 -17.155,25.507 -48.861,34.669 -70.777,20.477 z" />
      <path
   id="path1261"
   style="fill:#ffffff"
   d="M257.356,471.629c-26.407,1.076-52.275-21.287-51.916-29.013    c-0.359-11.406,32.156-20.298,53.263-19.759c21.286-0.898,49.938,6.735,50.028,16.975    C309.182,449.712,282.864,472.076,257.356,471.629L257.356,471.629z" />
      <path
   id="path1263"
   style="fill:#ffffff"
   d="M310.259,359.444c0.18,26.677-23.532,48.322-52.813,48.502    c-29.281,0.18-53.172-21.376-53.352-47.964v-0.538c-0.18-26.677,23.533-48.321,52.813-48.501    c29.28-0.181,53.173,21.377,53.352,47.961V359.444z" />
      <path
   id="path1265"
   style="fill:#ffffff"
   d="M384.089,397.798c-22.723,31.077-53.53,32.243-64.938,23.62    c-11.946-11.136-2.875-45.715,13.563-64.669c18.771-20.927,38.892-34.58,52.902-23.891    C395.048,342.108,400.617,376.959,384.089,397.798L384.089,397.798z" />
      <path
   id="path1267"
   style="fill:#ffffff"
   d="M404.658,332.049c-19.31,8.444-35.029-94.58-11.317-88.292    C432.772,265.944,425.945,315.253,404.658,332.049z" />
    </g>
  </g>
  <g
   id="Layer_1" />
</svg>
