<?xml version="1.0" encoding="UTF-8" standalone="no"?>
<svg
   xmlns:dc="http://purl.org/dc/elements/1.1/"
   xmlns:cc="http://creativecommons.org/ns#"
   xmlns:rdf="http://www.w3.org/1999/02/22-rdf-syntax-ns#"
   xmlns:svg="http://www.w3.org/2000/svg"
   xmlns="http://www.w3.org/2000/svg"
   xmlns:sodipodi="http://sodipodi.sourceforge.net/DTD/sodipodi-0.dtd"
   xmlns:inkscape="http://www.inkscape.org/namespaces/inkscape"
   version="1.1"
   x="0px"
   y="0px"
   viewBox="0 0 70 50.700001"
   xml:space="preserve"
   id="svg186"
   sodipodi:docname="raspberrypi.svg"
   width="70"
   height="50.700001"
   inkscape:version="1.0 (4035a4fb49, 2020-05-01)"><metadata
     id="metadata192"><rdf:RDF><cc:Work
         rdf:about=""><dc:format>image/svg+xml</dc:format><dc:type
           rdf:resource="http://purl.org/dc/dcmitype/StillImage" /></cc:Work></rdf:RDF></metadata><defs
     id="defs190" /><sodipodi:namedview
     inkscape:document-rotation="0"
     pagecolor="#ffffff"
     bordercolor="#666666"
     borderopacity="1"
     objecttolerance="10"
     gridtolerance="10"
     guidetolerance="10"
     inkscape:pageopacity="0"
     inkscape:pageshadow="2"
     inkscape:window-width="3440"
     inkscape:window-height="1410"
     id="namedview188"
     showgrid="false"
     inkscape:zoom="9.704"
     inkscape:cx="36.771781"
     inkscape:cy="37.576419"
     inkscape:window-x="0"
     inkscape:window-y="0"
     inkscape:window-maximized="1"
     inkscape:current-layer="svg186" /><g
     id="g180"
     transform="matrix(0.83964057,0,0,0.83964057,-12.594609,-20.739122)"><path
       d="m 83,36.9 v -7.2 c 0,-2.8 -2.2,-5 -5,-5 H 20 c -2.8,0 -5,2.2 -5,5 v 38.6 c 0,2 1.2,3.8 3,4.6 v 0.4 2 h 2 2 2 2 2 2 2 v -2 h 2.2 v 2 h 2 10.2 2 v -2 h 3.1 v 0.1 2 h 2 4.1 2 v -2 -0.1 h 18.3 c 2.8,0 5,-2.2 5,-5 h 0.1 2 v -2 -10.2 -2 H 83 V 49 h 2 v -2 -8.1 -2 z M 36.2,73.3 v -2 -6.1 h 10.2 v 6.1 2 z m 21.4,0.1 h -4.1 v -0.1 -2 -6.1 h 4.1 v 6.1 z M 83,66.3 v 0 H 80.9 69.8 V 56.1 H 81 83 Z M 81,54.1 h -11.2 -2 v 2 10.2 2 h 2 11.1 c 0,1.6 -1.3,3 -3,3 H 59.6 v -6.1 -2 h -2 -4.1 -2 v 2 6.1 h -3.1 v -6.1 -2 h -2 -10.2 -2 v 2 6.1 H 30 v 2 h -2 v -2 h -2 v 2 h -2 v -2 h -2 v 2 h -2 v -2 c -1.6,0 -3,-1.3 -3,-3 V 29.7 c 0,-1.6 1.3,-3 3,-3 h 58 c 1.6,0 3,1.3 3,3 v 7.2 h -9.2 -2 v 2 8.1 2 h 2 9.2 z M 83,47 h -2 -9.2 v -8.1 h 9.2 2 z"
       id="path120" /><circle
       cx="31.299999"
       cy="56.799999"
       r="1"
       id="circle122" /><rect
       x="20"
       y="39.5"
       width="4"
       height="3"
       id="rect124" /><polygon
       points="24,56.6 24,54.6 22,54.6 22,52.5 24,52.5 24,50.5 22,50.5 22,48.5 24,48.5 24,46.5 20,46.5 20,60.8 24,60.8 24,58.7 22,58.7 22,56.6 "
       id="polygon126" /><circle
       cx="22.1"
       cy="66.300003"
       r="2"
       id="circle128" /><path
       d="m 22.1,29.8 c -1.1,0 -2,0.9 -2,2 0,1.1 0.9,2 2,2 1.1,0 2,-1 2,-2 0,-1.1 -0.9,-2 -2,-2 z"
       id="path130" /><rect
       x="47.900002"
       y="28.700001"
       width="2"
       height="2"
       id="rect132" /><rect
       x="47.900002"
       y="32.700001"
       width="2"
       height="2"
       id="rect134" /><rect
       x="43.900002"
       y="28.700001"
       width="2"
       height="2"
       id="rect136" /><rect
       x="27.9"
       y="28.700001"
       width="2"
       height="2"
       id="rect138" /><rect
       x="27.9"
       y="32.700001"
       width="2"
       height="2"
       id="rect140" /><polygon
       points="29.2,41.6 29.2,43.6 27.2,43.6 27.2,45.7 29.2,45.7 29.2,47.7 27.2,47.7 27.2,49.6 31.2,49.6 31.2,39.5 27.2,39.5 27.2,41.6 "
       id="polygon142" /><path
       d="m 27.2,60.8 h 8.1 v -8.1 h -8.1 c 0,0 0,8.1 0,8.1 z m 2,-6.1 h 4.1 v 4.1 h -4.1 c 0,0 0,-4.1 0,-4.1 z"
       id="path144" /><rect
       x="31.9"
       y="32.700001"
       width="2"
       height="2"
       id="rect146" /><rect
       x="31.9"
       y="28.700001"
       width="2"
       height="2"
       id="rect148" /><rect
       x="35.900002"
       y="32.700001"
       width="2"
       height="2"
       id="rect150" /><rect
       x="35.900002"
       y="28.700001"
       width="2"
       height="2"
       id="rect152" /><rect
       x="39.900002"
       y="32.700001"
       width="2"
       height="2"
       id="rect154" /><rect
       x="39.900002"
       y="28.700001"
       width="2"
       height="2"
       id="rect156" /><rect
       x="43.900002"
       y="32.700001"
       width="2"
       height="2"
       id="rect158" /><rect
       x="42.400002"
       y="69.300003"
       width="2"
       height="2"
       id="rect160" /><path
       d="m 46.5,39.5 h -0.8 l -0.6,0.6 -2,2 -0.6,0.6 v 0.8 7.1 2 h 2 9.1 2 v -2 -9.1 -2 h -2 c 0,0 -7.1,0 -7.1,0 z m 7.1,11.1 h -9.1 v -7.1 l 2,-2 h 7.1 z"
       id="path162" /><rect
       x="51.900002"
       y="32.700001"
       width="2"
       height="2"
       id="rect164" /><rect
       x="51.900002"
       y="28.700001"
       width="2"
       height="2"
       id="rect166" /><rect
       x="55.900002"
       y="32.700001"
       width="2"
       height="2"
       id="rect168" /><rect
       x="55.900002"
       y="28.700001"
       width="2"
       height="2"
       id="rect170" /><circle
       cx="63.700001"
       cy="66.300003"
       r="2"
       id="circle172" /><path
       d="m 63.7,29.8 c -1.1,0 -2,0.9 -2,2 0,1.1 0.9,2 2,2 1.1,0 2,-1 2,-2 0,-1.1 -0.9,-2 -2,-2 z"
       id="path174" /><polygon
       points="77.5,43.1 77.5,42.8 78.3,42.1 78.3,41.1 76.5,41.9 76.5,44 78.3,44.8 78.3,43.8 "
       id="polygon176" /><polygon
       points="76.5,61.4 76.5,61 77.3,60.4 77.3,59.4 75.5,60.2 75.5,62.3 77.3,63.1 77.3,62.1 "
       id="polygon178" /></g><g
     id="root"
     stroke="none"
     stroke-width="1"
     fill="none"
     fill-rule="evenodd"
     transform="matrix(0.04934751,0,0,0.04934751,32.169045,-0.26695352)"><g
       id="shape.primary"
       transform="matrix(2.1088869,0,0,2.1088869,250.07824,500.25508)"
       style="fill:#f33535"><g
         id="g3817"><path
           d="M 16.397,233.62 0.877,249.138 V 0.862 L 31.91,218.105 Z M 233.607,16.377 249.123,0.862 V 249.138 L 218.094,31.892 233.608,16.377 Z"
           id="path3801"
           style="fill-opacity:0.6" /><path
           d="M 47.422,202.592 31.908,218.107 0.877,0.864 62.945,187.07 Z M 202.583,47.415 218.096,31.89 249.123,249.136 187.063,62.937 Z"
           id="path3803"
           style="fill-opacity:0.5" /><path
           d="M 78.456,171.554 62.942,187.072 0.877,0.863 93.972,156.039 Z M 171.549,78.45 187.065,62.935 249.123,249.136 156.036,93.968 Z"
           id="path3805"
           style="fill-opacity:0.4" /><path
           d="M 233.617,16.394 218.111,31.909 0.878,0.954 249.123,0.864 Z M 16.39,233.614 31.893,218.098 249.123,249.053 0.877,249.138 16.39,233.613 Z"
           id="path3807"
           style="fill-opacity:0.03" /><path
           d="M 202.592,47.431 187.086,62.954 0.878,0.954 218.113,31.907 202.593,47.431 Z M 47.407,202.576 62.921,187.046 249.121,249.053 31.891,218.1 Z"
           id="path3809"
           style="fill-opacity:0.05" /><path
           d="M 171.573,78.477 156.069,94.001 0.878,0.954 187.088,62.952 Z M 78.432,171.521 93.938,155.999 249.122,249.053 62.919,187.046 Z"
           id="path3811"
           style="fill-opacity:0.1" /><path
           d="M 140.557,109.521 125.003,125.003 0.877,0.952 156.071,93.999 Z M 109.45,140.486 124.995,125.002 249.123,249.055 93.936,156.001 Z"
           id="path3813"
           style="fill-opacity:0.2" /><path
           d="m 125,124.998 15.515,-15.517 15.52,-15.513 92.865,154.79 0.223,0.296 -0.124,-0.131 0.124,0.214 -0.296,-0.386 -123.83,-123.744 -15.508,15.51 L 93.971,156.039 1.105,1.247 0.877,0.953 1.007,1.084 0.877,0.864 1.18,1.257 Z"
           id="path3815"
           style="fill-opacity:0.3" /></g><g
         id="g3835"><path
           d="M 16.39,125.002 H 0.877 l 124.126,-124.14 -93.1,124.14 z m 217.218,-0.007 15.515,0.008 -124.12,124.135 93.091,-124.143 z"
           id="path3819"
           style="fill-opacity:0.6" /><path
           d="M 47.422,125.002 H 31.901 L 125.003,0.862 62.945,125.002 Z m 155.161,0 15.513,-0.007 -93.094,124.143 62.06,-124.136 z"
           id="path3821"
           style="fill-opacity:0.5" /><path
           d="M 78.456,125.002 H 62.942 L 125.003,0.862 93.972,125.002 Z m 93.093,0 h 15.516 l -62.063,124.136 31.034,-124.143 z"
           id="path3823"
           style="fill-opacity:0.4" /><path
           d="M 233.608,125.012 H 218.094 L 124.961,0.91 249.123,125.002 Z M 16.39,124.995 h 15.513 l 93.14,124.1 L 0.877,125.003 Z"
           id="path3825"
           style="fill-opacity:0.03" /><path
           d="M 202.574,125.012 187.063,125.029 124.961,0.91 218.097,125.012 Z m -155.152,-0.026 15.523,-0.007 62.097,124.116 -93.141,-124.1 15.52,-0.01 z"
           id="path3827"
           style="fill-opacity:0.05" /><path
           d="M 171.549,125.029 156.036,125.036 124.963,0.91 187.065,125.029 Z m -93.093,-0.05 15.516,-0.017 31.07,124.133 -62.1,-124.116 z"
           id="path3829"
           style="fill-opacity:0.1" /><path
           d="M 140.515,125.036 125.001,125.002 124.963,0.91 156.038,125.036 Z m -31.032,-0.074 15.513,0.034 0.046,124.1 L 93.97,124.962 Z"
           id="path3831"
           style="fill-opacity:0.2" /><path
           d="m 125.002,124.996 h 15.512 15.523 l -30.961,123.845 -0.034,0.252 v -0.128 l -0.039,0.172 0.039,-0.347 -0.046,-123.786 H 109.483 93.97 L 124.929,1.166 124.963,0.912 v 0.12 l 0.039,-0.169 -0.04,0.345 z"
           id="path3833"
           style="fill-opacity:0.3" /></g></g><g
       id="Group"
       transform="translate(40,354)"><rect
         id="Rectangle-10"
         x="0"
         y="0"
         width="420"
         height="46" /></g></g></svg>
