<?xml version="1.0" encoding="UTF-8" standalone="no"?>
<svg
   xmlns:dc="http://purl.org/dc/elements/1.1/"
   xmlns:cc="http://creativecommons.org/ns#"
   xmlns:rdf="http://www.w3.org/1999/02/22-rdf-syntax-ns#"
   xmlns:svg="http://www.w3.org/2000/svg"
   xmlns="http://www.w3.org/2000/svg"
   xmlns:sodipodi="http://sodipodi.sourceforge.net/DTD/sodipodi-0.dtd"
   xmlns:inkscape="http://www.inkscape.org/namespaces/inkscape"
   inkscape:version="1.0 (4035a4fb49, 2020-05-01)"
   height="50.700001"
   width="70"
   sodipodi:docname="raspberrypi.svg"
   id="svg186"
   xml:space="preserve"
   viewBox="0 0 70 50.700001"
   y="0px"
   x="0px"
   version="1.1"><metadata
     id="metadata192"><rdf:RDF><cc:Work
         rdf:about=""><dc:format>image/svg+xml</dc:format><dc:type
           rdf:resource="http://purl.org/dc/dcmitype/StillImage" /></cc:Work></rdf:RDF></metadata><defs
     id="defs190" /><sodipodi:namedview
     inkscape:current-layer="svg186"
     inkscape:window-maximized="1"
     inkscape:window-y="0"
     inkscape:window-x="0"
     inkscape:cy="37.8"
     inkscape:cx="35"
     inkscape:zoom="9.704"
     showgrid="false"
     id="namedview188"
     inkscape:window-height="1410"
     inkscape:window-width="3440"
     inkscape:pageshadow="2"
     inkscape:pageopacity="0"
     guidetolerance="10"
     gridtolerance="10"
     objecttolerance="10"
     borderopacity="1"
     bordercolor="#666666"
     pagecolor="#ffffff" /><g
     transform="translate(-15,-24.7)"
     id="g180"><path
       id="path120"
       d="m 83,36.9 v -7.2 c 0,-2.8 -2.2,-5 -5,-5 H 20 c -2.8,0 -5,2.2 -5,5 v 38.6 c 0,2 1.2,3.8 3,4.6 v 0.4 2 h 2 2 2 2 2 2 2 v -2 h 2.2 v 2 h 2 10.2 2 v -2 h 3.1 v 0.1 2 h 2 4.1 2 v -2 -0.1 h 18.3 c 2.8,0 5,-2.2 5,-5 h 0.1 2 v -2 -10.2 -2 H 83 V 49 h 2 v -2 -8.1 -2 z M 36.2,73.3 v -2 -6.1 h 10.2 v 6.1 2 z m 21.4,0.1 h -4.1 v -0.1 -2 -6.1 h 4.1 v 6.1 z M 83,66.3 v 0 H 80.9 69.8 V 56.1 H 81 83 Z M 81,54.1 h -11.2 -2 v 2 10.2 2 h 2 11.1 c 0,1.6 -1.3,3 -3,3 H 59.6 v -6.1 -2 h -2 -4.1 -2 v 2 6.1 h -3.1 v -6.1 -2 h -2 -10.2 -2 v 2 6.1 H 30 v 2 h -2 v -2 h -2 v 2 h -2 v -2 h -2 v 2 h -2 v -2 c -1.6,0 -3,-1.3 -3,-3 V 29.7 c 0,-1.6 1.3,-3 3,-3 h 58 c 1.6,0 3,1.3 3,3 v 7.2 h -9.2 -2 v 2 8.1 2 h 2 9.2 z M 83,47 h -2 -9.2 v -8.1 h 9.2 2 z" /><circle
       id="circle122"
       r="1"
       cy="56.799999"
       cx="31.299999" /><rect
       id="rect124"
       height="3"
       width="4"
       y="39.5"
       x="20" /><polygon
       id="polygon126"
       points="22,56.6 24,56.6 24,54.6 22,54.6 22,52.5 24,52.5 24,50.5 22,50.5 22,48.5 24,48.5 24,46.5 20,46.5 20,60.8 24,60.8 24,58.7 22,58.7 " /><circle
       id="circle128"
       r="2"
       cy="66.300003"
       cx="22.1" /><path
       id="path130"
       d="m 22.1,29.8 c -1.1,0 -2,0.9 -2,2 0,1.1 0.9,2 2,2 1.1,0 2,-1 2,-2 0,-1.1 -0.9,-2 -2,-2 z" /><rect
       id="rect132"
       height="2"
       width="2"
       y="28.700001"
       x="47.900002" /><rect
       id="rect134"
       height="2"
       width="2"
       y="32.700001"
       x="47.900002" /><rect
       id="rect136"
       height="2"
       width="2"
       y="28.700001"
       x="43.900002" /><rect
       id="rect138"
       height="2"
       width="2"
       y="28.700001"
       x="27.9" /><rect
       id="rect140"
       height="2"
       width="2"
       y="32.700001"
       x="27.9" /><polygon
       id="polygon142"
       points="27.2,41.6 29.2,41.6 29.2,43.6 27.2,43.6 27.2,45.7 29.2,45.7 29.2,47.7 27.2,47.7 27.2,49.6 31.2,49.6 31.2,39.5 27.2,39.5 " /><path
       id="path144"
       d="m 27.2,60.8 h 8.1 v -8.1 h -8.1 c 0,0 0,8.1 0,8.1 z m 2,-6.1 h 4.1 v 4.1 h -4.1 c 0,0 0,-4.1 0,-4.1 z" /><rect
       id="rect146"
       height="2"
       width="2"
       y="32.700001"
       x="31.9" /><rect
       id="rect148"
       height="2"
       width="2"
       y="28.700001"
       x="31.9" /><rect
       id="rect150"
       height="2"
       width="2"
       y="32.700001"
       x="35.900002" /><rect
       id="rect152"
       height="2"
       width="2"
       y="28.700001"
       x="35.900002" /><rect
       id="rect154"
       height="2"
       width="2"
       y="32.700001"
       x="39.900002" /><rect
       id="rect156"
       height="2"
       width="2"
       y="28.700001"
       x="39.900002" /><rect
       id="rect158"
       height="2"
       width="2"
       y="32.700001"
       x="43.900002" /><rect
       id="rect160"
       height="2"
       width="2"
       y="69.300003"
       x="42.400002" /><path
       id="path162"
       d="m 46.5,39.5 h -0.8 l -0.6,0.6 -2,2 -0.6,0.6 v 0.8 7.1 2 h 2 9.1 2 v -2 -9.1 -2 h -2 c 0,0 -7.1,0 -7.1,0 z m 7.1,11.1 h -9.1 v -7.1 l 2,-2 h 7.1 z" /><rect
       id="rect164"
       height="2"
       width="2"
       y="32.700001"
       x="51.900002" /><rect
       id="rect166"
       height="2"
       width="2"
       y="28.700001"
       x="51.900002" /><rect
       id="rect168"
       height="2"
       width="2"
       y="32.700001"
       x="55.900002" /><rect
       id="rect170"
       height="2"
       width="2"
       y="28.700001"
       x="55.900002" /><circle
       id="circle172"
       r="2"
       cy="66.300003"
       cx="63.700001" /><path
       id="path174"
       d="m 63.7,29.8 c -1.1,0 -2,0.9 -2,2 0,1.1 0.9,2 2,2 1.1,0 2,-1 2,-2 0,-1.1 -0.9,-2 -2,-2 z" /><polygon
       id="polygon176"
       points="78.3,43.8 77.5,43.1 77.5,42.8 78.3,42.1 78.3,41.1 76.5,41.9 76.5,44 78.3,44.8 " /><polygon
       id="polygon178"
       points="77.3,62.1 76.5,61.4 76.5,61 77.3,60.4 77.3,59.4 75.5,60.2 75.5,62.3 77.3,63.1 " /></g></svg>
