<?xml version="1.0" encoding="iso-8859-1"?>
<!-- Generator: Adobe Illustrator 19.0.0, SVG Export Plug-In . SVG Version: 6.00 Build 0)  -->
<svg version="1.1" id="Capa_1" xmlns="http://www.w3.org/2000/svg" xmlns:xlink="http://www.w3.org/1999/xlink" x="0px" y="0px"
	 viewBox="0 0 512 512" style="enable-background:new 0 0 512 512;" xml:space="preserve">
<g>
	<g>
		<g>
			<path d="M511.582,355.772L421.547,77.449c-3.401-10.577-13.252-17.74-24.363-17.715H114.816
				c-11.113-0.026-20.967,7.142-24.363,17.724L0.418,355.772c-0.043,0.306-0.069,0.613-0.077,0.922
				C0.167,357.249,0.053,357.821,0,358.4v68.267c0,14.138,11.461,25.6,25.6,25.6h460.8c14.138,0,25.6-11.461,25.6-25.6V358.4
				C511.762,357.542,511.622,356.661,511.582,355.772z M106.667,82.714c1.14-3.535,4.435-5.926,8.149-5.914h282.368
				c3.702-0.002,6.983,2.383,8.124,5.905l86.426,267.162H20.267L106.667,82.714z M494.933,426.667c0,4.713-3.82,8.533-8.533,8.533
				H25.6c-4.713,0-8.533-3.82-8.533-8.533v-59.733h477.867V426.667z"/>
			<path d="M256,170.667c-24.328,0-42.667,11.008-42.667,25.6s18.338,25.6,42.667,25.6c24.329,0,42.667-11.008,42.667-25.6
				S280.329,170.667,256,170.667z M256,204.8c-16.521,0-25.6-6.409-25.6-8.533s9.079-8.533,25.6-8.533
				c16.521,0,25.6,6.409,25.6,8.533S272.521,204.8,256,204.8z"/>
			<path d="M162.133,307.2h-102.4c-4.713,0-8.533,3.82-8.533,8.533V332.8c0,4.713,3.82,8.533,8.533,8.533s8.533-3.82,8.533-8.533
				v-8.533h17.067v8.533c0,4.713,3.821,8.533,8.533,8.533c4.713,0,8.533-3.82,8.533-8.533v-8.533h17.067v8.533
				c0,4.713,3.82,8.533,8.533,8.533s8.533-3.82,8.533-8.533v-8.533H153.6v8.533c0,4.713,3.82,8.533,8.533,8.533
				s8.533-3.82,8.533-8.533v-17.067C170.667,311.021,166.846,307.2,162.133,307.2z"/>
			<path d="M435.2,315.733V307.2c-0.045-10.81-6.875-20.427-17.067-24.03v-18.637c0-3.444-2.07-6.55-5.248-7.876l-6.494-2.705
				c12.665-13.274,19.898-30.81,20.275-49.152c0-57.421-74.965-102.4-170.667-102.4S85.333,147.379,85.333,204.8
				c0,57.421,74.965,102.4,170.667,102.4c56.568,0,105.737-15.787,136.619-40.499l8.448,3.524v12.945
				c-10.192,3.603-17.022,13.22-17.067,24.03v8.533c-4.713,0-8.533,3.82-8.533,8.533s3.82,8.533,8.533,8.533h51.2
				c4.713,0,8.533-3.82,8.533-8.533S439.913,315.733,435.2,315.733z M389.444,246.895l-78.959-32.905
				c-2.634-1.099-5.643-0.808-8.018,0.775c-2.375,1.583-3.801,4.248-3.801,7.102v17.067c0,4.713,3.82,8.533,8.533,8.533
				s8.533-3.82,8.533-8.533v-4.267l58.658,24.439C346.189,278.042,303.59,290.133,256,290.133c-84.693,0-153.6-38.281-153.6-85.333
				s68.907-85.333,153.6-85.333s153.6,38.281,153.6,85.333C408.928,220.999,401.643,236.215,389.444,246.895z M418.133,315.733
				h-17.067V307.2c0-4.713,3.82-8.533,8.533-8.533s8.533,3.82,8.533,8.533V315.733z"/>
			<path d="M59.733,426.667H128c14.138,0,25.6-11.462,25.6-25.6c0-14.138-11.462-25.6-25.6-25.6H59.733
				c-14.138,0-25.6,11.462-25.6,25.6C34.133,415.205,45.595,426.667,59.733,426.667z M59.733,392.533H128
				c4.713,0,8.533,3.82,8.533,8.533s-3.82,8.533-8.533,8.533H59.733c-4.713,0-8.533-3.821-8.533-8.533
				S55.021,392.533,59.733,392.533z"/>
			<path d="M384,426.667h68.267c14.138,0,25.6-11.462,25.6-25.6c0-14.138-11.462-25.6-25.6-25.6H384
				c-14.138,0-25.6,11.462-25.6,25.6C358.4,415.205,369.862,426.667,384,426.667z M384,392.533h68.267
				c4.713,0,8.533,3.82,8.533,8.533s-3.821,8.533-8.533,8.533H384c-4.713,0-8.533-3.821-8.533-8.533S379.287,392.533,384,392.533z"
				/>
			<path d="M187.733,409.6h136.533c4.713,0,8.533-3.821,8.533-8.533s-3.82-8.533-8.533-8.533H187.733
				c-4.713,0-8.533,3.82-8.533,8.533S183.021,409.6,187.733,409.6z"/>
		</g>
	</g>
</g>
<g>
</g>
<g>
</g>
<g>
</g>
<g>
</g>
<g>
</g>
<g>
</g>
<g>
</g>
<g>
</g>
<g>
</g>
<g>
</g>
<g>
</g>
<g>
</g>
<g>
</g>
<g>
</g>
<g>
</g>
</svg>
