<?xml version="1.0" encoding="iso-8859-1"?>
<!-- Generator: Adobe Illustrator 19.0.0, SVG Export Plug-In . SVG Version: 6.00 Build 0)  -->
<svg version="1.1" id="Capa_1" xmlns="http://www.w3.org/2000/svg" xmlns:xlink="http://www.w3.org/1999/xlink" x="0px" y="0px"
	 viewBox="0 0 512.017 512.017" style="enable-background:new 0 0 512.017 512.017;" xml:space="preserve">
<g>
	<g>
		<g>
			<path d="M371.621,468.945v-342.04c-0.155-7.481-1.926-14.84-5.191-21.572l-0.053-5.23h-2.724
				c-4.597-8.238-11.215-15.17-19.23-20.145L213.181,4.2c-7.525-5.358-17.55-5.611-25.336-0.638L155.075,19.95h-0.236l-1.462,0.756
				c-8.672,3.896-13.888,12.894-12.959,22.356v342.039c0.906,19.135,11.044,36.64,27.191,46.947l131.237,75.75
				c4.274,2.621,9.16,4.075,14.171,4.217c1.95,0.005,3.89-0.286,5.753-0.864l0.109,0.108l1.485-0.742
				c0.729-0.305,1.437-0.658,2.118-1.058l38.633-19.292C368.3,485.606,372.351,477.425,371.621,468.945z M153.891,43.062
				c0-2.377,0.428-7.733,3.743-9.523l0.053,0.102l0.969-0.5c3.151-0.439,6.35,0.335,8.952,2.164l131.237,75.75
				c6.922,4.46,12.445,10.784,15.934,18.243c2.784,5.26,4.329,11.085,4.52,17.033v29.379L153.891,80.222V43.062z M153.891,95.781
				l165.408,95.489v203.336l-82.704-47.742l-82.704-47.743V95.781z M316.126,497.59l-0.009,0.007
				c-2.171,1.622-6.117,1.076-10.535-1.469l-131.257-75.757c-11.969-7.899-19.535-20.958-20.434-35.27v-70.421l82.704,47.74
				l82.704,47.745v78.199C319.679,491.76,318.514,495.147,316.126,497.59z M354.812,478.26l-22.053,11.007
				c0.007-0.296,0.013-0.599,0.013-0.901V146.332c-0.168-8.038-2.2-15.927-5.934-23.046c-4.65-9.839-12.028-18.135-21.257-23.901
				L175.965,24.568l18.551-9.275l0.29-0.194l0.197-0.089l-0.016-0.031l0.97-0.647c2.276-1.546,6.099-0.993,10.5,1.546l131.23,75.75
				c6.92,4.453,12.442,10.77,15.928,18.224l0.757,1.507c2.326,4.863,3.612,10.158,3.776,15.546v342.039
				C358.629,472.408,357.383,475.888,354.812,478.26z"/>
			<path d="M239.95,376.181c-7.001-4.796-16.044-5.445-23.658-1.698c-7.051,4.614-11.006,12.721-10.303,21.118
				c0.938,19.141,11.082,36.645,27.224,46.974c4.265,2.6,9.138,4.036,14.132,4.164c3.34,0.034,6.629-0.817,9.533-2.467
				c7.051-4.614,11.006-12.721,10.303-21.118C266.243,404.012,256.096,386.507,239.95,376.181z M250.141,432.602
				c-3.465,1.196-7.3,0.557-10.191-1.698c-11.977-7.913-19.559-20.977-20.487-35.303c-0.488-3.55,0.854-7.105,3.566-9.447
				c0.876-0.479,1.864-0.717,2.862-0.691c2.604,0.159,5.125,0.981,7.322,2.388c11.981,7.91,19.566,20.976,20.493,35.303
				C254.195,426.704,252.853,430.26,250.141,432.602z"/>
			<path d="M257.845,106.023l-35.783-20.658c-2.085-1.205-4.654-1.206-6.74-0.002c-2.086,1.204-3.37,3.429-3.369,5.837
				c0.001,2.408,1.286,4.633,3.372,5.835l35.783,20.658c3.223,1.86,7.344,0.756,9.204-2.467
				C262.173,112.004,261.068,107.883,257.845,106.023z"/>
		</g>
	</g>
</g>
<g>
</g>
<g>
</g>
<g>
</g>
<g>
</g>
<g>
</g>
<g>
</g>
<g>
</g>
<g>
</g>
<g>
</g>
<g>
</g>
<g>
</g>
<g>
</g>
<g>
</g>
<g>
</g>
<g>
</g>
</svg>
