<svg height="512" viewBox="0 0 60 60" width="512" xmlns="http://www.w3.org/2000/svg"><g id="Page-1" fill="none" fill-rule="evenodd"><g id="019---Speakers" fill="rgb(0,0,0)" fill-rule="nonzero"><path id="Shape" d="m12 20c4.418278 0 8-3.581722 8-8s-3.581722-8-8-8-8 3.581722-8 8 3.581722 8 8 8zm0-14c3.3137085 0 6 2.6862915 6 6s-2.6862915 6-6 6-6-2.6862915-6-6 2.6862915-6 6-6z"/><path id="Shape" d="m9 13c.55228475 0 1-.4477153 1-1 0-1.1045695.8954305-2 2-2 .5522847 0 1-.44771525 1-1s-.4477153-1-1-1c-2.209139 0-4 1.790861-4 4 0 .5522847.44771525 1 1 1z"/><path id="Shape" d="m7 27c1.65685425 0 3-1.3431458 3-3s-1.34314575-3-3-3-3 1.3431458-3 3 1.34314575 3 3 3zm0-4c.55228475 0 1 .4477153 1 1s-.44771525 1-1 1-1-.4477153-1-1 .44771525-1 1-1z"/><path id="Shape" d="m17 21c-1.6568542 0-3 1.3431458-3 3s1.3431458 3 3 3 3-1.3431458 3-3-1.3431458-3-3-3zm0 4c-.5522847 0-1-.4477153-1-1s.4477153-1 1-1 1 .4477153 1 1-.4477153 1-1 1z"/><path id="Shape" d="m57 0h-18c-1.6568542 0-3 1.34314575-3 3v32c0 1.6568542 1.3431458 3 3 3h8v14c0 3.3137085-2.6862915 6-6 6h-4c-3.3137085 0-6-2.6862915-6-6v-3c1.6568542 0 3-1.3431458 3-3v-9c-.0042869-.7102221-.3849109-1.3648954-1-1.72v-9.28c0-1.6568542-1.3431458-3-3-3s-3 1.3431458-3 3v9.28c-.6150891.3551046-.9957131 1.0097779-1 1.72v9c0 1.6568542 1.3431458 3 3 3v3c0 3.3137085-2.6862915 6-6 6h-4c-3.3137085 0-6-2.6862915-6-6v-14h8c1.6568542 0 3-1.3431458 3-3v-32c0-1.65685425-1.3431458-3-3-3h-18c-1.65685425 0-3 1.34314575-3 3v32c0 1.6568542 1.34314575 3 3 3h8v14c0 4.418278 3.581722 8 8 8h4c2.9130602-.0026107 5.5944491-1.5884607 7-4.14 1.4055509 2.5515393 4.0869398 4.1373893 7 4.14h4c4.418278 0 8-3.581722 8-8v-14h8c1.6568542 0 3-1.3431458 3-3v-32c0-1.65685425-1.3431458-3-3-3zm-28 30h2v5h-2zm1-5c.5522847 0 1 .4477153 1 1v2h-2v-2c0-.5522847.4477153-1 1-1zm-2 21v-9h4v9c0 .5522847-.4477153 1-1 1h-2c-.5522847 0-1-.4477153-1-1zm-25-44h18c.5522847 0 1 .44771525 1 1v26h-20v-26c0-.55228475.44771525-1 1-1zm-1 33v-4h20v4c0 .5522847-.4477153 1-1 1h-18c-.55228475 0-1-.4477153-1-1zm37-33h18c.5522847 0 1 .44771525 1 1v26h-20v-26c0-.55228475.4477153-1 1-1zm18 34h-18c-.5522847 0-1-.4477153-1-1v-4h20v4c0 .5522847-.4477153 1-1 1z"/><path id="Shape" d="m48 20c4.418278 0 8-3.581722 8-8s-3.581722-8-8-8-8 3.581722-8 8 3.581722 8 8 8zm0-14c3.3137085 0 6 2.6862915 6 6s-2.6862915 6-6 6-6-2.6862915-6-6 2.6862915-6 6-6z"/><path id="Shape" d="m45 13c.5522847 0 1-.4477153 1-1 0-1.1045695.8954305-2 2-2 .5522847 0 1-.44771525 1-1s-.4477153-1-1-1c-2.209139 0-4 1.790861-4 4 0 .5522847.4477153 1 1 1z"/><path id="Shape" d="m43 27c1.6568542 0 3-1.3431458 3-3s-1.3431458-3-3-3-3 1.3431458-3 3 1.3431458 3 3 3zm0-4c.5522847 0 1 .4477153 1 1s-.4477153 1-1 1-1-.4477153-1-1 .4477153-1 1-1z"/><path id="Shape" d="m53 21c-1.6568542 0-3 1.3431458-3 3s1.3431458 3 3 3 3-1.3431458 3-3-1.3431458-3-3-3zm0 4c-.5522847 0-1-.4477153-1-1s.4477153-1 1-1 1 .4477153 1 1-.4477153 1-1 1z"/></g></g></svg>