<svg height="512" viewBox="0 0 60 60" width="512" xmlns="http://www.w3.org/2000/svg"><g id="Page-1" fill="none" fill-rule="evenodd"><g id="026---Smart-Speaker" fill="rgb(0,0,0)" fill-rule="nonzero" transform="translate(0 -1)"><path id="Shape" d="m30 61c7.951 0 16-2.061 16-6v-1.676c1.1630765-.7212533 1.9075494-1.9585674 2-3.324v-40c-.090345-1.38886731-.8550023-2.64549034-2.047-3.364-.487-3.698-8.253-5.636-15.953-5.636s-15.466 1.938-15.953 5.636c-1.1919977.71850966-1.956655 1.97513269-2.047 3.364v40c.0924506 1.3654326.8369235 2.6027467 2 3.324v1.676c0 3.939 8.049 6 16 6zm14-6c0 1.631-5.454 4-14 4s-14-2.369-14-4v-.5c3.513 1.639 8.844 2.5 14 2.5s10.487-.863 14-2.5zm-14 0c-9.913 0-16-2.912-16-5v-36.676c3.191 2.402 9.728 3.676 16 3.676s12.809-1.274 16-3.676v36.676c0 2.088-6.087 5-16 5zm0-52c8.546 0 14 2.369 14 4s-5.454 4-14 4-14-2.369-14-4 5.454-4 14-4zm-15.378 5.765c2.01 2.784 8.719 4.235 15.378 4.235s13.368-1.451 15.378-4.235c.3579253.31675548.5805782.7588395.622 1.235 0 2.088-6.087 5-16 5s-16-2.912-16-5c.0414218-.4761605.2640747-.91824452.622-1.235z"/><path id="Shape" d="m22 8h2c.5522847 0 1-.44771525 1-1s-.4477153-1-1-1h-2c-.5522847 0-1 .44771525-1 1s.4477153 1 1 1z"/><path id="Shape" d="m36 8h2c.5522847 0 1-.44771525 1-1s-.4477153-1-1-1h-2c-.5522847 0-1 .44771525-1 1s.4477153 1 1 1z"/><circle id="Oval" cx="17" cy="19" r="1"/><circle id="Oval" cx="22" cy="20" r="1"/><circle id="Oval" cx="19" cy="23" r="1"/><circle id="Oval" cx="24" cy="24" r="1"/><circle id="Oval" cx="41" cy="23" r="1"/><circle id="Oval" cx="36" cy="24" r="1"/><circle id="Oval" cx="30" cy="24" r="1"/><circle id="Oval" cx="27" cy="21" r="1"/><circle id="Oval" cx="43" cy="19" r="1"/><circle id="Oval" cx="38" cy="20" r="1"/><circle id="Oval" cx="33" cy="21" r="1"/><circle id="Oval" cx="17" cy="26" r="1"/><circle id="Oval" cx="22" cy="27" r="1"/><circle id="Oval" cx="27" cy="28" r="1"/><circle id="Oval" cx="43" cy="26" r="1"/><circle id="Oval" cx="38" cy="27" r="1"/><circle id="Oval" cx="33" cy="28" r="1"/><path id="Shape" d="m36.472 32.118c-.3253403-.1740849-.7201091-.1548654-1.027.05-2.614 1.743-7.2.861-7.25.851-.2936803-.0583885-.5980711.0178957-.8295049.2078844-.2314338.1899888-.365554.4736873-.3654951.7731156v6.184c-.320257-.1184378-.6585603-.1806856-1-.184-1.6568542 0-3 1.3431458-3 3s1.3431458 3 3 3 3-1.3431458 3-3v-7.848c2.0159313.2513076 4.0623428.0654252 6-.545v3.577c-.320257-.1184378-.6585603-.1806856-1-.184-1.6568542 0-3 1.3431458-3 3s1.3431458 3 3 3 3-1.3431458 3-3v-8c.0001481-.3688816-.2027945-.7078879-.528-.882zm-10.472 11.882c-.5522847 0-1-.4477153-1-1s.4477153-1 1-1 1 .4477153 1 1-.4477153 1-1 1zm8-2c-.5522847 0-1-.4477153-1-1s.4477153-1 1-1 1 .4477153 1 1-.4477153 1-1 1z"/><path id="Shape" d="m2.551 16.766c.36241644-.0005378.69617712-.1971197.8723761-.5138212.17619897-.3167016.16725555-.7039491-.0233761-1.0121788-2.61012521-4.2273882-1.30615748-9.76981024 2.915-12.39.31499549-.18263523.50582704-.52204842.49818964-.88608064-.00763739-.36403222-.21253653-.69514299-.53491484-.86440612-.32237832-.16926313-.71127933-.14992418-1.0152748.05048676-5.15867446 3.20217672-6.75246653 9.9754575-3.563 15.142.1823371.2948193.50435149.4741786.851.474z"/><path id="Shape" d="m8.745 4.875c-.13958599-.2256243-.36311172-.38653053-.62137119-.44729746-.25825946-.06076693-.53008166-.01641316-.75562881.12329746-3.28326105 2.03744951-4.29782927 6.3480224-2.268 9.636.18496478.3104556.5230396.4969642.88430351.4878513.3612639-.009113.68950531-.2124295.8585822-.5318159.1690769-.3193864.15268142-.705147-.04288571-1.0090354-1.44962639-2.348873-.72449008-5.42790644 1.621-6.883.46924225-.29064557.61425882-.90651842.324-1.376z"/><path id="Shape" d="m54.737 1.15c-.3039955-.20041094-.6928965-.21974989-1.0152748-.05048676s-.5272774.5003739-.5349148.86440612.1831941.70344541.4981896.88608064c4.2211575 2.62018976 5.5251252 8.1626118 2.915 12.39-.2714136.4681137-.1212414 1.0672016.3388884 1.3519408.4601298.2847391 1.0632816.1518258 1.3611116-.2999408 3.1894665-5.1665425 1.5956745-11.93982328-3.563-15.142z"/><path id="Shape" d="m53.522 14.511c.2255471.1397106.4973693.1840644.7556288.1232975.2582595-.060767.4817852-.2216732.6213712-.4472975 2.0300103-3.2877174 1.0159063-7.59821847-2.267-9.636-.3038884-.19556713-.689649-.21196261-1.0090354-.04288571-.3193864.16907689-.5227029.4973183-.5318159.8585822-.0091129.36126391.1773957.69933873.4878513.88430351 2.3454901 1.45509356 3.0706264 4.534127 1.621 6.883-.2913026.4691704-.1471432 1.0856535.322 1.377z"/><path id="Shape" d="m5.263 60.85c.15745745.0982736.33939161.1502547.525.15.44685214.0000971.83953459-.2962789.96195679-.7260342s-.05513245-.8885718-.43495679-1.1239658c-4.22115748-2.6201898-5.52512521-8.1626118-2.915-12.39.2714136-.4681137.12124137-1.0672016-.33888842-1.3519408-.46012979-.2847391-1.06328156-.1518258-1.36111158.2999408-3.18946653 5.1665425-1.59567446 11.9398233 3.563 15.142z"/><path id="Shape" d="m6.478 47.489c-.22554715-.1397106-.49736935-.1840644-.75562881-.1232975-.25825947.060767-.4817852.2216732-.62137119.4472975-2.03001032 3.2877174-1.01590634 7.5982185 2.267 9.636.30388839.1955671.689649.2119626 1.00903538.0428857s.52270297-.4973183.53181592-.8585822-.17739569-.6993387-.4878513-.8843035c-2.34549008-1.4550936-3.07062639-4.534127-1.621-6.883.29130263-.4691704.14714319-1.0856535-.322-1.377z"/><path id="Shape" d="m54.212 61c.1856084.0002547.3675426-.0517264.525-.15 5.1586745-3.2021767 6.7524665-9.9754575 3.563-15.142-.29783-.4517666-.9009818-.5846799-1.3611116-.2999408-.4601298.2847392-.610302.8838271-.3388884 1.3519408 2.6101252 4.2273882 1.3061575 9.7698102-2.915 12.39-.3798243.235394-.557379.6942105-.4349568 1.1239658s.5151047.7261313.9619568.7260342z"/><path id="Shape" d="m51.255 57.125c.139586.2256243.3631117.3865305.6213712.4472975.2582595.0607669.5300817.0164131.7556288-.1232975 3.2832611-2.0374495 4.2978293-6.3480224 2.268-9.636-.1849648-.3104556-.5230396-.4969642-.8843035-.4878513-.3612639.009113-.6895053.2124295-.8585822.5318159s-.1526814.705147.0428857 1.0090354c1.4499885 2.3483526.7257806 5.4272424-1.619 6.883-.4699522.2899799-.6158982.9059974-.326 1.376z"/></g></g></svg>