<?xml version="1.0" encoding="iso-8859-1"?>
<!-- Generator: Adobe Illustrator 19.0.0, SVG Export Plug-In . SVG Version: 6.00 Build 0)  -->
<svg version="1.1" id="Capa_1" xmlns="http://www.w3.org/2000/svg" xmlns:xlink="http://www.w3.org/1999/xlink" x="0px" y="0px"
	 viewBox="0 0 512 512" style="enable-background:new 0 0 512 512;" xml:space="preserve">
<g>
	<g>
		<path d="M437.019,74.981C388.667,26.628,324.38,0,256,0c-54.62,0-106.743,16.965-150.734,49.059
			c-4.462,3.256-5.44,9.511-2.185,13.973c3.255,4.462,9.511,5.44,13.973,2.185C157.599,35.636,205.646,20,256,20
			c130.131,0,236,105.869,236,236S386.131,492,256,492S20,386.131,20,256c0-47.138,13.851-92.637,40.054-131.58
			c3.083-4.582,1.868-10.796-2.714-13.879c-4.582-3.083-10.796-1.868-13.879,2.714C15.028,155.51,0,204.87,0,256
			c0,68.38,26.628,132.667,74.981,181.019C123.333,485.372,187.62,512,256,512s132.667-26.628,181.019-74.981
			C485.372,388.667,512,324.38,512,256S485.372,123.333,437.019,74.981z"/>
	</g>
</g>
<g>
	<g>
		<path d="M83.358,80.564c-4.006-3.803-10.336-3.639-14.138,0.366l-0.208,0.222c-3.762,4.044-3.499,10.337,0.545,14.098
			c1.917,1.783,4.355,2.661,6.789,2.661c2.701,0,5.399-1.082,7.378-3.209C87.527,90.696,87.363,84.367,83.358,80.564z"/>
	</g>
</g>
<g>
	<g>
		<g>
			<path d="M381.236,260.241c-25.89-15.127-55.379-25.902-87.65-32.025c-25.328-4.803-52.424-6.767-80.532-5.838
				c-46.599,1.535-79.973,10.344-83.643,11.349c-15.047,4.147-23.927,19.771-19.797,34.827c4.13,15.051,19.748,23.953,34.768,19.854
				c1.249-0.333,31.047-8.169,71.449-9.401c36.942-1.125,90.651,3.209,136.811,30.188c4.342,2.53,9.278,3.867,14.275,3.867
				c10.038,0,19.421-5.381,24.489-14.042c0.002-0.003,0.004-0.006,0.005-0.008C399.292,285.515,394.727,268.122,381.236,260.241z
				 M374.142,288.924c-1.496,2.553-4.264,4.138-7.225,4.138c-1.484,0-2.9-0.386-4.195-1.141
				c-45.796-26.767-97.776-33.071-136.574-33.071c-3.77,0-7.421,0.059-10.925,0.166c-42.688,1.302-74.655,9.71-76.063,10.086
				c-4.441,1.214-9.043-1.409-10.259-5.84c-1.216-4.434,1.397-9.034,5.807-10.25c1.364-0.374,33.93-9.162,79.005-10.646
				c26.639-0.882,52.261,0.97,76.145,5.499c30.023,5.697,57.372,15.67,81.289,29.645C375.117,279.83,376.46,284.949,374.142,288.924
				z"/>
			<path d="M431.934,208.839c-2.203-8.396-7.544-15.434-15.041-19.816c-31.519-18.419-67.448-31.543-106.788-39.008
				c-30.901-5.859-63.969-8.252-98.288-7.126c-58.395,1.929-100.322,13.364-102.066,13.847c-8.371,2.305-15.343,7.732-19.631,15.281
				c-4.287,7.548-5.379,16.315-3.073,24.684c2.305,8.371,7.731,15.343,15.28,19.631c7.547,4.287,16.313,5.379,24.688,3.073
				c1.452-0.396,146.48-38.891,257.075,25.74c4.97,2.909,10.636,4.447,16.384,4.447c11.52,0,22.28-6.172,28.079-16.105
				C432.936,225.991,434.137,217.237,431.934,208.839z M411.284,223.4c-2.23,3.82-6.372,6.193-10.81,6.193
				c-2.232,0-4.345-0.575-6.287-1.711c-54.12-31.629-115.245-40.266-165.869-40.266c-60.365,0-105.799,12.281-106.615,12.509
				c-3.222,0.887-6.595,0.468-9.498-1.182c-2.902-1.648-4.989-4.33-5.876-7.551c-0.887-3.221-0.468-6.594,1.181-9.497
				c1.649-2.903,4.33-4.989,7.562-5.879c1.663-0.46,41.362-11.286,97.405-13.137c32.847-1.083,64.443,1.201,93.901,6.787
				c37.092,7.038,70.88,19.36,100.423,36.625c2.885,1.686,4.94,4.394,5.787,7.624S412.973,220.511,411.284,223.4z"/>
		</g>
	</g>
</g>
<g>
	<g>
		<path d="M365.262,339.492c-1.726-6.584-5.915-12.104-11.795-15.542c-22.004-12.86-47.067-22.016-74.491-27.216
			c-21.495-4.08-44.483-5.749-68.328-4.959c-40.635,1.339-69.771,9.305-70.973,9.638c-13.53,3.725-21.516,17.771-17.804,31.312
			c3.713,13.546,17.759,21.55,31.287,17.847c0.253-0.069,25.674-6.833,59.934-7.874c30.972-0.939,76.002,2.676,114.653,25.263
			c3.901,2.282,8.344,3.488,12.847,3.488c9.024,0,17.46-4.838,22.017-12.626v-0.001
			C366.047,352.944,366.989,346.079,365.262,339.492z M345.346,348.724c-0.999,1.705-2.776,2.724-4.754,2.724
			c-0.972,0-1.897-0.253-2.753-0.753c-38.956-22.766-83.11-28.13-116.056-28.13c-3.211,0-6.316,0.052-9.3,0.14
			c-37.082,1.126-64.322,8.496-64.585,8.568c-2.917,0.798-5.94-0.923-6.739-3.838c-0.799-2.916,0.916-5.941,3.843-6.747
			c0.276-0.077,28.032-7.666,66.307-8.926c22.373-0.742,43.887,0.814,63.94,4.62c25.178,4.774,48.099,13.129,68.126,24.833
			c1.267,0.741,2.17,1.931,2.542,3.349C346.288,345.981,346.086,347.459,345.346,348.724z"/>
	</g>
</g>
<g>
	<g>
		<path d="M256.501,447.177c-0.01,0-0.02,0-0.03,0H256c-5.523,0-10,4.477-10,10s4.477,10,10,10h0.53
			c5.523-0.016,9.987-4.506,9.971-10.029C266.484,451.635,262.011,447.177,256.501,447.177z"/>
	</g>
</g>
<g>
	<g>
		<path d="M384.089,411.459c-3.3-4.428-9.565-5.343-13.994-2.045c-23.191,17.277-50.416,29.207-78.73,34.501
			c-5.429,1.015-9.007,6.238-7.992,11.667c0.899,4.808,5.098,8.164,9.818,8.164c0.61,0,1.228-0.056,1.851-0.172
			c31.294-5.851,61.379-19.033,87.002-38.121C386.473,422.153,387.388,415.888,384.089,411.459z"/>
	</g>
</g>
<g>
</g>
<g>
</g>
<g>
</g>
<g>
</g>
<g>
</g>
<g>
</g>
<g>
</g>
<g>
</g>
<g>
</g>
<g>
</g>
<g>
</g>
<g>
</g>
<g>
</g>
<g>
</g>
<g>
</g>
</svg>
