<?xml version="1.0" encoding="iso-8859-1"?>
<!-- Generator: Adobe Illustrator 19.0.0, SVG Export Plug-In . SVG Version: 6.00 Build 0)  -->
<svg version="1.1" id="Capa_1" xmlns="http://www.w3.org/2000/svg" xmlns:xlink="http://www.w3.org/1999/xlink" x="0px" y="0px"
	 viewBox="0 0 511.232 511.232" style="enable-background:new 0 0 511.232 511.232;" xml:space="preserve">
<g transform="translate(-1)">
	<g transform="translate(2 25)">
		<path style="fill:#A4C2F7;" d="M408.241,204.632v125.44c-0.028,81.52-66.106,147.598-147.627,147.627h-11.947
			c-2.048,0-4.096,0-6.059-0.171h-1.536c-78.463-4.094-139.993-68.887-140.032-147.456v-125.44
			c0.028-9.414,7.653-17.039,17.067-17.067h273.067C400.588,187.593,408.213,195.218,408.241,204.632z"/>
		<path style="fill:#E3E7F2;" d="M382.641,204.632v125.44c-0.039,78.569-61.569,143.362-140.032,147.456h-1.536
			c-78.463-4.094-139.993-68.887-140.032-147.456v-125.44c0.028-9.414,7.653-17.039,17.067-17.067h247.467
			C374.988,187.593,382.613,195.218,382.641,204.632z"/>
		<path style="fill:#FFFFFF;" d="M241.073,477.528h1.536c1.963,0.171,4.011,0.171,6.059,0.171h11.947
			c1.707,0,3.413-0.205,5.163-0.265c-78.081-4.532-139.091-69.15-139.136-147.362v-125.44c0.028-9.414,7.653-17.039,17.067-17.067
			h-25.6c-9.414,0.028-17.039,7.653-17.067,17.067v125.44C101.079,408.641,162.61,473.434,241.073,477.528z"/>
	</g>
	<g>
		<polygon style="fill:#FFFFFF;" points="94.508,355.029 94.508,244.096 94.508,229.632 111.574,229.632 111.574,244.096
			111.574,355.029 		"/>
		<g>
			<path style="fill:#0060dd;" d="M99.798,294.622c0.485,0.24,1.003,0.41,1.536,0.503c0.564,0.095,1.135,0.152,1.707,0.171
				c2.259-0.033,4.422-0.917,6.059-2.475c0.769-0.814,1.377-1.767,1.792-2.807c1.289-3.185,0.587-6.831-1.792-9.31
				c-0.818-0.768-1.773-1.376-2.816-1.792c-1.029-0.423-2.13-0.64-3.243-0.64c-3.467-0.02-6.601,2.059-7.931,5.261
				c-1.329,3.202-0.59,6.89,1.872,9.331l1.28,1.024C98.74,294.199,99.256,294.446,99.798,294.622z"/>
			<path style="fill:#0060dd;" d="M418.774,229.632c0-14.139-11.462-25.6-25.6-25.6H154.241v-84.565
				c0-56.554,45.846-102.4,102.4-102.4s102.4,45.846,102.4,102.4c0,4.713,3.821,8.533,8.533,8.533c4.713,0,8.533-3.821,8.533-8.533
				C376.108,53.487,322.621,0,256.641,0S137.174,53.487,137.174,119.467v84.565h-17.067c-14.138,0-25.6,11.462-25.6,25.6v23.04
				c0,4.713,3.821,8.533,8.533,8.533s8.533-3.82,8.533-8.533v-23.04c0-4.713,3.821-8.533,8.533-8.533h273.067
				c4.713,0,8.533,3.821,8.533,8.533v125.44c-0.108,76.774-62.319,138.985-139.093,139.093h-11.861
				c-76.808-0.061-139.07-62.286-139.179-139.093v-34.133c0-4.713-3.821-8.533-8.533-8.533s-8.533,3.82-8.533,8.533v34.133
				c0.122,86.211,69.992,156.061,156.203,156.16h11.904c86.194-0.122,156.038-69.966,156.16-156.16V229.632z"/>
			<path style="fill:#0060dd;" d="M196.908,340.565h119.467c4.713,0,8.533-3.82,8.533-8.533s-3.82-8.533-8.533-8.533H196.908
				c-4.713,0-8.533,3.82-8.533,8.533S192.195,340.565,196.908,340.565z"/>
			<path style="fill:#0060dd;" d="M196.908,391.765h119.467c4.713,0,8.533-3.82,8.533-8.533s-3.82-8.533-8.533-8.533H196.908
				c-4.713,0-8.533,3.82-8.533,8.533S192.195,391.765,196.908,391.765z"/>
		</g>
	</g>
</g>
<g>
</g>
<g>
</g>
<g>
</g>
<g>
</g>
<g>
</g>
<g>
</g>
<g>
</g>
<g>
</g>
<g>
</g>
<g>
</g>
<g>
</g>
<g>
</g>
<g>
</g>
<g>
</g>
<g>
</g>
</svg>
