<svg xmlns="http://www.w3.org/2000/svg" viewBox="0 0 32 40" x="0px" y="0px">
<path d="M29,0H3A3,3,0,0,0,0,3V29a3,3,0,0,0,3,3H29a3,3,0,0,0,3-3V3A3,3,0,0,0,29,0ZM3,2H29a1,1,0,0,1,1,1V8H2V3A1,1,0,0,1,3,2ZM29,30H3a1,1,0,0,1-1-1V10H30V29A1,1,0,0,1,29,30Z"/><rect x="4" y="4" width="2" height="2"/><rect x="8" y="4" width="2" height="2"/><rect x="26" y="4" width="2" height="2"/><path d="M22,14H14a1,1,0,0,0-1,1v5.18A3,3,0,0,0,12,20a3,3,0,1,0,3,3V16h6v4.18A3,3,0,0,0,20,20a3,3,0,1,0,3,3V15A1,1,0,0,0,22,14ZM12,24a1,1,0,1,1,1-1A1,1,0,0,1,12,24Zm8,0a1,1,0,1,1,1-1A1,1,0,0,1,20,24Z"/>
</svg>
