<svg width="100" height="100" xmlns="http://www.w3.org/2000/svg" viewBox="0 0 100 100" style="enable-background:new 0 0 100 100;" xml:space="preserve">
   <path id="svg_2" d="m21.719221,74.472588l56.980944,0c-0.797852,-1.368752 -1.805954,-2.155205 -2.880981,-2.155205l-51.218838,0c-1.075161,0 -2.083269,0.786453 -2.881124,2.155205z"/>
   <polygon id="svg_3" points="43.33645677566528,59.98553508520126 39.01627016067505,69.62098354101181 61.40326738357544,69.62098354101181 57.08293962478638,59.98553508520126 "/>
   <rect id="svg_4" height="55.844298" width="84.806723" y="1.426523" x="7.806335"/>
   <polygon id="svg_5" points="70.37050676345825,82.96596187353134 71.31045579910278,85.95295375585556 78.6857762336731,85.95295375585556 77.52850389480591,82.96596187353134 "/>
   <polygon id="svg_6" points="81.47528123855591,93.15196651220322 79.73786973953247,88.66766780614853 72.16493272781372,88.66766780614853 73.57628679275513,93.15196651220322 "/>
   <polygon id="svg_7" points="70.72978258132935,93.15196651220322 69.31826829910278,88.66766780614853 62.095375537872314,88.66766780614853 62.86526918411255,93.15196651220322 "/>
   <polygon id="svg_8" points="76.47641801834106,80.2512554526329 75.63433122634888,78.07744258642197 68.83178758621216,78.07744258642197 69.51590013504028,80.2512554526329 "/>
   <polygon id="svg_9" points="68.463951587677,85.95295375585556 67.52371263504028,82.96596187353134 61.11672258377075,82.96596187353134 61.629528522491455,85.95295375585556 "/>
   <polygon id="svg_10" points="60.27733278274536,78.07744258642197 60.6506085395813,80.2512554526329 66.66925477981567,80.2512554526329 65.98501634597778,78.07744258642197 "/>
   <polygon id="svg_11" points="51.56718873977661,78.07744258642197 51.56718873977661,80.2512554526329 57.89653444290161,80.2512554526329 57.523396015167236,78.07744258642197 "/>
   <polygon id="svg_12" points="51.56718873977661,85.95295375585556 58.8754620552063,85.95295375585556 58.362648487091064,82.96596187353134 51.56718873977661,82.96596187353134 "/>
   <polygon id="svg_13" points="51.56718873977661,93.15196651220322 60.11146593093872,93.15196651220322 59.34157609939575,88.66766780614853 51.56718873977661,88.66766780614853 "/>
   <polygon id="svg_14" points="48.85247468948364,78.07744258642197 42.89613389968872,78.07744258642197 42.52286195755005,80.2512554526329 48.85247468948364,80.2512554526329 "/>
   <polygon id="svg_15" points="48.85247468948364,82.96596187353134 42.056747913360596,82.96596187353134 41.54393434524536,85.95295375585556 48.85247468948364,85.95295375585556 "/>
   <polygon id="svg_16" points="40.30793046951294,93.15196651220322 48.85247468948364,93.15196651220322 48.85247468948364,88.66766780614853 41.07782030105591,88.66766780614853 "/>
   <polygon id="svg_17" points="40.14205980300903,78.07744258642197 34.43438005447388,78.07744258642197 33.75013589859009,80.2512554526329 39.768940448760986,80.2512554526329 "/>
   <polygon id="svg_18" points="39.3029408454895,82.96596187353134 32.89568758010864,82.96596187353134 31.955713748931885,85.95295375585556 38.7901349067688,85.95295375585556 "/>
   <polygon id="svg_19" points="38.324020862579346,88.66766780614853 31.101128101348877,88.66766780614853 29.68974733352661,93.15196651220322 37.55412721633911,93.15196651220322 "/>
   <polygon id="svg_20" points="31.587873935699463,78.07744258642197 24.78535509109497,78.07744258642197 23.942978382110596,80.2512554526329 30.903631687164307,80.2512554526329 "/>
   <polygon id="svg_21" points="30.049173831939697,82.96596187353134 22.891165256500244,82.96596187353134 21.7336106300354,85.95295375585556 29.10893678665161,85.95295375585556 "/>
   <polygon id="svg_22" points="18.94411325454712,93.15196651220322 26.843103885650635,93.15196651220322 28.254618167877197,88.66766780614853 20.68181276321411,88.66766780614853 "/>
   <path id="svg_23" d="m78.546112,78.077446l6.176781,15.94146c0.161804,0.417526 0.106682,0.888123 -0.14592,1.257462c-0.253006,0.369591 -0.672028,0.590309 -1.120094,0.590309l-66.494368,0c-0.448065,0 -0.866945,-0.220718 -1.120092,-0.590309c-0.252602,-0.369339 -0.307442,-0.839935 -0.145916,-1.257462l6.177067,-15.94146l-3.69894,0l-9.600167,20.699669l83.270478,0l-9.600174,-20.699669l-3.698654,0z"/>
</svg>
