<?xml version="1.0" encoding="utf-8"?>
<!-- Svg Vector Icons : http://www.onlinewebfonts.com/icon -->
<!DOCTYPE svg PUBLIC "-//W3C//DTD SVG 1.1//EN" "http://www.w3.org/Graphics/SVG/1.1/DTD/svg11.dtd">
<svg version="1.1" xmlns="http://www.w3.org/2000/svg" xmlns:xlink="http://www.w3.org/1999/xlink" x="0px" y="0px" viewBox="0 0 1000 1000" enable-background="new 0 0 1000 1000" xml:space="preserve">
<metadata> Svg Vector Icons : http://www.onlinewebfonts.com/icon </metadata>
<g><g transform="translate(0.000000,511.000000) scale(0.100000,-0.100000)"><path d="M4389.1,5000.3c-366.3-21.4-933.3-83.8-1219.8-136.4c-531.9-95.5-869-432.6-945-943.1c-33.1-220.2-2-366.3,179.3-828.1c444.3-1130.1,730.7-2180.4,904.1-3304.6c62.4-405.3,204.6-1706.9,204.6-1882.3c0-231.9,99.4-452,251.4-557.3l77.9-54.6l1.9-516.3c0-376.1,7.8-553.4,29.2-652.8c83.8-397.5,397.5-744.3,789.1-869c194.8-64.3,508.6-60.4,697.6,7.8c79.9,27.3,192.9,79.9,251.4,115c153.9,93.5,339,296.2,422.8,467.6c111.1,226,128.6,342.9,128.6,931.4l1.9,516.3l77.9,54.6c152,105.2,251.4,325.4,251.4,559.2c0,173.4,140.3,1465.3,204.6,1880.3c165.6,1077.5,455.9,2157,847.6,3156.6c229.9,590.4,239.7,623.5,241.6,828.1c0,122.7-11.7,224.1-35.1,302c-118.8,397.5-440.4,695.6-839.8,777.5c-165.6,35.1-695.6,101.3-1013.2,128.6C5560.2,5008.1,4739.8,5019.8,4389.1,5000.3z M5986.9,4649.6c656.7-66.3,941.1-116.9,1077.5-189c124.7-68.2,276.7-233.8,341-370.2c46.8-99.4,52.6-136.4,50.7-307.9c0-189-3.9-200.7-103.3-448.2c-58.5-138.3-152-380-208.5-535.8L7043,2516H5002.9H2962.8l-103.3,282.5c-56.5,155.9-150,397.5-206.5,535.8c-101.3,247.5-103.3,257.2-105.2,448.2c0,171.5,5.8,208.5,52.6,307.9c64.3,136.4,216.3,302,341,370.2c140.3,76,524.1,140.3,1106.7,189c140.3,9.7,292.3,23.4,341,27.3C4560.6,4690.5,5786.2,4671,5986.9,4649.6z M6922.2,2178.9c0-9.7-35.1-134.5-77.9-278.6c-189-625.5-380-1480.9-475.4-2131.7c-27.3-181.2-76-584.6-109.1-896.3c-31.2-309.8-64.3-594.3-70.2-627.4l-9.7-64.3H5002.9H3824.1l-7.8,44.8c-5.9,23.4-33.1,270.8-60.4,549.5C3631.1,10.2,3446,978.6,3149.9,1933.4c-37,120.8-66.3,228-66.3,239.7c0,15.6,526.1,21.4,1919.3,21.4C6059,2194.5,6922.2,2186.7,6922.2,2178.9z M6162.2-2181.9c0-74-70.2-187-150-241.6l-72.1-48.7h-937.2h-937.2l-72.1,48.7c-79.9,54.6-150,167.6-150,241.6v50.7h1159.4h1159.4V-2181.9z M5831-2969v-175.4h-828.1h-828.1v175.4v175.4h828.1H5831V-2969z M5831-3631.5v-175.4h-828.1h-828.1v175.4v175.4h828.1H5831V-3631.5z M5624.5-4188.8c-52.6-79.9-239.7-200.7-374.1-241.6c-253.3-77.9-526.1-31.2-740.4,126.6c-66.3,46.8-128.6,103.3-140.3,126.7c-21.4,39-19.5,39,633.3,39h652.7L5624.5-4188.8z"/></g></g>
</svg>