<svg xmlns="http://www.w3.org/2000/svg" xmlns:xlink="http://www.w3.org/1999/xlink" version="1.1" x="0px" y="0px"
  viewBox="0 0 16 20" style="enable-background:new 0 0 16 16;" xml:space="preserve">
  <path
    d="M15.354,1.354l-0.707-0.707L11.87,3.423C10.824,2.537,9.475,2,8,2C4.691,2,2,4.691,2,8c0,1.475,0.537,2.824,1.423,3.87  l-2.776,2.776l0.707,0.707l2.776-2.776C5.175,13.463,6.525,14,8,14c3.309,0,6-2.691,6-6c0-1.475-0.537-2.825-1.423-3.87  L15.354,1.354z M3,8c0-2.757,2.243-5,5-5c1.198,0,2.284,0.441,3.146,1.146l-7,7C3.441,10.284,3,9.198,3,8z M13,8  c0,2.757-2.243,5-5,5c-1.198,0-2.284-0.441-3.146-1.146l7-7C12.559,5.716,13,6.802,13,8z" />
  </svg>
