<svg height="512px"
  style="enable-background:new 0 0 512 512;" version="1.1" viewBox="0 0 512 512" width="512px" xml:space="preserve"
  xmlns="http://www.w3.org/2000/svg" xmlns:xlink="http://www.w3.org/1999/xlink">
  <g id="_x32_72-raspberry-pi">
    <g>
      <path
        d="M407.354,234.956l-3.324-5.838c0.09-41.676-19.221-58.652-41.765-71.586c6.826-1.796,13.831-3.232,15.808-11.855    c11.767-2.965,14.191-8.444,15.358-14.193c3.055-2.064,13.293-7.813,12.215-17.693c5.749-3.952,8.982-9.072,7.276-16.256    c6.198-6.738,7.815-12.307,5.21-17.426c7.454-9.251,4.131-14.011,0.988-18.771c5.567-10.06,0.628-20.838-14.911-19.042    c-6.198-9.072-19.67-7.006-21.736-7.006c-2.334-2.875-5.389-5.389-14.819-4.222c-6.107-5.479-12.933-4.492-20.029-1.886    c-8.353-6.557-13.922-1.258-20.299,0.719c-10.15-3.234-12.485,1.167-17.427,3.053c-11.046-2.335-14.46,2.695-19.759,7.995    l-6.198-0.09c-16.704,9.7-24.968,29.46-27.933,39.61c-2.963-10.15-11.227-29.91-27.933-39.61l-6.198,0.09    c-5.299-5.299-8.713-10.33-19.759-7.995c-5.03-1.796-7.276-6.288-17.426-3.053c-4.132-1.258-7.994-3.953-12.484-3.864    c-2.335,0.09-4.941,0.899-7.814,3.145c-7.096-2.694-13.921-3.592-20.03,1.886c-9.431-1.167-12.575,1.257-14.82,4.222    c-2.066,0-15.54-2.066-21.736,7.006c-15.539-1.796-20.39,8.982-14.821,19.042c-3.144,4.851-6.467,9.611,0.989,18.771    c-2.605,5.119-0.989,10.688,5.209,17.426c-1.617,7.185,1.618,12.305,7.276,16.256c-1.078,9.88,9.161,15.629,12.215,17.693    c1.167,5.749,3.593,11.139,15.359,14.193c1.976,8.533,8.982,10.059,15.809,11.855c-22.545,12.935-41.856,29.91-41.767,71.586    l-3.322,5.838C78.886,250.404,55.624,300.254,92,340.673c2.336,12.663,6.377,21.735,9.881,31.795    c5.299,40.598,39.969,59.552,49.042,61.796c13.382,10.059,27.663,19.581,46.885,26.229c18.232,18.502,37.993,25.507,57.753,25.507    h0.898c19.85,0,39.519-7.005,57.664-25.507c19.312-6.647,33.502-16.17,46.886-26.229c9.16-2.244,43.74-21.198,49.039-61.796    c3.504-10.06,7.547-19.132,9.882-31.795C456.394,300.164,433.132,250.404,407.354,234.956L407.354,234.956z" />
      <path
        d="M387.413,227.77c-1.348,16.796-88.83-58.473-73.74-60.987    C354.721,160.047,388.761,184.027,387.413,227.77z"
        style="fill:#C41949;" />
      <path
        d="M348.791,311.392c-22.006,14.192-53.711,5.03-70.776-20.478    c-17.065-25.509-13.113-57.665,8.893-71.856c22.005-14.191,53.711-5.029,70.777,20.479    C374.749,265.047,370.796,297.2,348.791,311.392L348.791,311.392z"
        style="fill:#C41949;" />
      <path
        d="M287.805,52.444c0.719,3.773,1.616,6.108,2.605,6.826c4.85-5.209,8.802-10.509,15.089-15.539    c0,2.965-1.526,6.108,2.245,8.443c3.323-4.491,7.904-8.532,13.922-11.946c-2.873,5.03-0.539,6.557,1.077,8.623    c4.582-3.952,8.983-7.903,17.426-11.047c-2.336,2.784-5.568,5.568-2.155,8.802c4.761-2.963,9.521-5.927,20.749-7.995    c-2.516,2.785-7.815,5.659-4.583,8.444c5.931-2.246,12.574-3.952,19.852-4.851c-3.504,2.875-6.378,5.659-3.504,7.905    c6.377-1.976,15.181-4.582,23.713-2.336l-5.39,5.479c-0.628,0.718,12.664,0.539,21.466,0.718    c-3.233,4.491-6.467,8.713-8.354,16.347c0.899,0.899,5.211,0.36,9.342,0c-4.222,8.893-11.497,11.048-13.203,14.909    c2.604,1.977,6.107,1.438,10.06,0.09c-3.054,6.198-9.341,10.509-14.371,15.54c1.258,0.897,3.502,1.437,8.713,0.808    c-4.671,4.94-10.239,9.431-16.886,13.472c1.167,1.348,5.209,1.348,8.981,1.438c-6.018,5.838-13.742,8.893-21.017,12.754    c3.592,2.424,6.196,1.886,8.981,1.886c-5.119,4.222-13.833,6.377-21.916,8.982c1.526,2.425,3.056,3.053,6.378,3.682    c-8.534,4.761-20.839,2.605-24.251,5.03c0.809,2.424,3.233,3.952,6.017,5.209c-13.831,0.809-51.466-0.539-58.741-29.011    c14.102-15.54,39.88-33.682,84.16-56.227c-34.49,11.497-65.568,26.945-91.614,48.053    C251.787,102.653,272.895,66.726,287.805,52.444L287.805,52.444z"
        style="fill:#6BC048;" />
      <path
        d="M256.907,155.375c21.735-0.269,48.592,15.989,48.502,31.168    c-0.09,13.472-18.862,24.34-48.322,24.16c-28.832-0.359-48.233-13.652-48.143-26.766    C208.944,173.249,232.477,154.748,256.907,155.375L256.907,155.375z"
        style="fill:#C41949;" />
      <path
        d="M146.43,143.879c3.323-0.629,4.851-1.348,6.377-3.682c-8.084-2.515-16.796-4.761-21.916-8.982    c2.784,0,5.389,0.629,8.982-1.886c-7.275-3.861-15-6.916-21.018-12.754c3.772-0.09,7.814,0,8.981-1.438    c-6.646-4.041-12.215-8.532-16.885-13.472c5.209,0.629,7.454,0.09,8.711-0.808c-5.03-5.031-11.406-9.342-14.37-15.54    c3.861,1.348,7.455,1.796,10.059-0.09c-1.707-3.771-8.982-6.017-13.203-14.909c4.131,0.36,8.443,0.899,9.341,0    c-1.886-7.634-5.21-11.945-8.354-16.347c8.803-0.089,22.096,0,21.466-0.718l-5.389-5.479c8.533-2.246,17.335,0.36,23.712,2.336    c2.875-2.246-0.09-5.03-3.503-7.905c7.275,0.988,13.832,2.605,19.85,4.851c3.143-2.785-2.066-5.659-4.581-8.444    c11.228,2.067,15.987,5.031,20.749,7.995c3.413-3.233,0.179-6.018-2.156-8.802c8.443,3.054,12.845,7.096,17.426,11.047    c1.527-2.066,3.952-3.593,1.077-8.623c6.019,3.414,10.599,7.455,13.922,11.946c3.682-2.334,2.246-5.568,2.246-8.443    c6.287,5.03,10.239,10.33,15.089,15.539c0.988-0.718,1.796-3.053,2.605-6.826c14.91,14.282,36.015,50.209,5.389,64.49    c-26.047-21.107-57.125-36.556-91.615-48.053c44.28,22.455,70.058,40.687,84.16,56.227c-7.186,28.562-44.909,29.82-58.741,29.011    c2.784-1.257,5.209-2.874,6.018-5.209C167.268,146.394,155.053,148.55,146.43,143.879L146.43,143.879z"
        style="fill:#6BC048;" />
      <path
        d="M200.411,165.526c15.089,2.514-72.394,77.693-73.741,60.986    C125.322,182.771,159.455,158.699,200.411,165.526z"
        style="fill:#C41949;" />
      <path
        d="M107.539,333.307c-21.286-16.885-28.113-66.196,11.317-88.291    C142.658,238.729,126.939,341.84,107.539,333.307z"
        style="fill:#C41949;" />
      <path
        d="M189.274,421.51c-11.947,7.095-41.137,4.221-61.796-25.061    c-13.922-24.608-12.125-49.58-2.335-56.944c14.641-8.804,37.274,3.054,54.699,22.993    C195.023,380.462,201.938,412.168,189.274,421.51z"
        style="fill:#C41949;" />
      <path
        d="M165.562,313.996c-22.005-14.191-25.958-46.347-8.893-71.855    c17.066-25.508,48.772-34.67,70.778-20.478c22.005,14.19,25.957,46.345,8.892,71.856    C219.184,319.026,187.478,328.188,165.562,313.996z"
        style="fill:#C41949;" />
      <path
        d="M257.356,471.629c-26.407,1.076-52.275-21.287-51.916-29.013    c-0.359-11.406,32.156-20.298,53.263-19.759c21.286-0.898,49.938,6.735,50.028,16.975    C309.182,449.712,282.864,472.076,257.356,471.629L257.356,471.629z"
        style="fill:#C41949;" />
      <path
        d="M310.259,359.444c0.18,26.677-23.532,48.322-52.813,48.502    c-29.281,0.18-53.172-21.376-53.352-47.964v-0.538c-0.18-26.677,23.533-48.321,52.813-48.501    c29.28-0.181,53.173,21.377,53.352,47.961V359.444z"
        style="fill:#C41949;" />
      <path
        d="M384.089,397.798c-22.723,31.077-53.53,32.243-64.938,23.62    c-11.946-11.136-2.875-45.715,13.563-64.669c18.771-20.927,38.892-34.58,52.902-23.891    C395.048,342.108,400.617,376.959,384.089,397.798L384.089,397.798z"
        style="fill:#C41949;" />
      <path
        d="M404.658,332.049c-19.31,8.444-35.029-94.58-11.317-88.292    C432.772,265.944,425.945,315.253,404.658,332.049z"
        style="fill:#C41949;" />
    </g>
  </g>
  <g id="Layer_1" />
</svg>
