<svg xmlns="http://www.w3.org/2000/svg" xmlns:xlink="http://www.w3.org/1999/xlink" version="1.1" x="0px" y="0px"
  viewBox="0 0 100 100" enable-background="new 0 0 100 100" xml:space="preserve">
  <g>
    <g>
      <path
        d="M77.5,99.535h-55c-4.841,0-8.779-3.938-8.779-8.778V9.242c0-4.84,3.938-8.777,8.779-8.777h55    c4.841,0,8.778,3.937,8.778,8.777v81.515C86.278,95.598,82.341,99.535,77.5,99.535z M22.5,3.352c-3.25,0-5.892,2.643-5.892,5.891    v81.515c0,3.25,2.643,5.893,5.892,5.893h55c3.248,0,5.893-2.643,5.893-5.893V9.242c0-3.248-2.645-5.891-5.893-5.891H22.5z" />
    </g>
    <g>
      <path
        d="M50,12.738c-4.616,0-8.358,3.742-8.358,8.357c0,4.616,3.742,8.358,8.358,8.358c4.616,0,8.357-3.742,8.357-8.358    C58.356,16.48,54.615,12.738,50,12.738z M50,24.234c-1.733,0-3.138-1.405-3.138-3.138c0-1.732,1.405-3.138,3.138-3.138    s3.139,1.405,3.139,3.138C53.139,22.829,51.732,24.234,50,24.234z" />
    </g>
    <g>
      <circle cx="74.978" cy="11.765" r="2.637" />
    </g>
    <g>
      <circle cx="25.022" cy="11.765" r="2.638" />
    </g>
    <g>
      <circle cx="74.978" cy="88.234" r="2.637" />
    </g>
    <g>
      <circle cx="25.022" cy="88.234" r="2.638" />
    </g>
    <path
      d="M50,36.344c-14.414,0-26.097,11.683-26.097,26.097c0,14.413,11.683,26.096,26.097,26.096   c14.413,0,26.097-11.683,26.097-26.096C76.097,48.027,64.412,36.344,50,36.344z M66.455,49.488   c0.003,0.004,0.005,0.008,0.009,0.012c-0.004-0.004-0.007-0.009-0.011-0.013C66.453,49.488,66.455,49.488,66.455,49.488z    M29.64,57.516c1.835-7.611,7.823-13.599,15.435-15.433l0.742,3.069c-6.455,1.562-11.545,6.651-13.107,13.106L29.64,57.516z    M37.046,78.896c0,0-0.001-0.001-0.001-0.002c0.006,0.004,0.012,0.009,0.017,0.014C37.058,78.904,37.051,78.899,37.046,78.896z    M38.766,59.724l-3.238-0.783c1.309-5.406,5.564-9.661,10.971-10.97l0.784,3.238C43.081,52.223,39.779,55.521,38.766,59.724z    M43.407,62.441c0-3.641,2.951-6.591,6.592-6.591s6.591,2.95,6.591,6.591c0,3.64-2.95,6.592-6.591,6.592   S43.407,66.081,43.407,62.441z M52.717,73.673c4.201-1.013,7.502-4.312,8.516-8.515l3.239,0.783   c-1.31,5.406-5.565,9.661-10.972,10.971L52.717,73.673z M54.924,82.8l-0.742-3.07c6.455-1.562,11.545-6.651,13.107-13.106   l3.068,0.742C68.523,74.977,62.535,80.965,54.924,82.8z" />
  </g>
</svg>
